<svg xmlns="http://www.w3.org/2000/svg" viewBox="0 0 1000 1000"><defs><style>.cls-1{fill:#155bff;}.cls-2{fill:#fff;}</style></defs><title>アセット 1</title><g id="レイヤー_2" data-name="レイヤー 2"><g id="レイヤー_1-2" data-name="レイヤー 1"><rect class="cls-1" width="1000" height="1000"/><path class="cls-2" d="M314.2,486.716a70.613,70.613,0,0,1-4.546,25.862,56.565,56.565,0,0,1-32.7,32.923,69.05,69.05,0,0,1-25.686,4.59H203.605V423.34h47.664a69.111,69.111,0,0,1,25.686,4.59,56.49,56.49,0,0,1,32.7,32.968A70.724,70.724,0,0,1,314.2,486.716Zm-19.243,0a61.984,61.984,0,0,0-3.088-20.258,42.892,42.892,0,0,0-8.783-15.181,37.385,37.385,0,0,0-13.769-9.488,47.774,47.774,0,0,0-18.051-3.266H222.494V534.91h28.775a47.754,47.754,0,0,0,18.051-3.266,37.4,37.4,0,0,0,13.769-9.489,42.945,42.945,0,0,0,8.783-15.138A61.864,61.864,0,0,0,294.96,486.716Z"/><path class="cls-2" d="M332.033,472.947A49.244,49.244,0,0,1,367.6,458.736a34.473,34.473,0,0,1,13.593,2.515,27.988,27.988,0,0,1,9.974,7.017,29.892,29.892,0,0,1,6.134,10.769,43.931,43.931,0,0,1,2.074,13.858v57.2H391.7a7.3,7.3,0,0,1-3.884-.839,5.767,5.767,0,0,1-2.118-3.132l-1.854-7.857a74.309,74.309,0,0,1-6.8,5.606,43.511,43.511,0,0,1-7.017,4.148,35.745,35.745,0,0,1-7.812,2.6,44.288,44.288,0,0,1-9.179.882,32.937,32.937,0,0,1-9.93-1.456,22.272,22.272,0,0,1-8.076-4.458,21.053,21.053,0,0,1-5.429-7.5,25.83,25.83,0,0,1-1.986-10.5,19.9,19.9,0,0,1,2.869-10.195q2.867-4.9,9.356-8.782a60.193,60.193,0,0,1,16.948-6.356,126.9,126.9,0,0,1,25.729-2.824V492.9q0-10.15-4.325-15.183t-12.71-5.03A27.721,27.721,0,0,0,356,474.094a36.678,36.678,0,0,0-6.621,3.133q-2.779,1.722-4.854,3.134a7.512,7.512,0,0,1-4.281,1.412,4.878,4.878,0,0,1-3.045-.971,8.047,8.047,0,0,1-2.074-2.3Zm50.488,37.336a131.442,131.442,0,0,0-17.83,1.634,49.029,49.029,0,0,0-11.916,3.4,16.187,16.187,0,0,0-6.62,4.987,10.815,10.815,0,0,0-2.03,6.4,13.867,13.867,0,0,0,1.1,5.781,10.753,10.753,0,0,0,3,3.973,12.008,12.008,0,0,0,4.458,2.25,20.84,20.84,0,0,0,5.561.706,31.238,31.238,0,0,0,7.282-.794,29.071,29.071,0,0,0,6.222-2.251,31.332,31.332,0,0,0,5.561-3.574,49.72,49.72,0,0,0,5.208-4.856Z"/><path class="cls-2" d="M443.777,432.7a10.966,10.966,0,0,1-.971,4.546,12.659,12.659,0,0,1-2.6,3.8,11.906,11.906,0,0,1-3.84,2.559,11.757,11.757,0,0,1-4.59.927,11.126,11.126,0,0,1-4.5-.927,12.147,12.147,0,0,1-3.751-2.559,12,12,0,0,1-2.56-3.8,11.419,11.419,0,0,1-.926-4.546,11.639,11.639,0,0,1,.926-4.634,12.019,12.019,0,0,1,2.56-3.8,12.147,12.147,0,0,1,3.751-2.559,11.11,11.11,0,0,1,4.5-.927,11.739,11.739,0,0,1,4.59.927,11.906,11.906,0,0,1,3.84,2.559,12.684,12.684,0,0,1,2.6,3.8A11.175,11.175,0,0,1,443.777,432.7Zm-3.266,27.716v89.678H423.3V460.413Z"/><path class="cls-2" d="M483.144,419.81V550.091h-17.3V419.81Z"/><path class="cls-2" d="M586.062,460.413,536.28,576.13a7.279,7.279,0,0,1-2.118,3,6.114,6.114,0,0,1-3.884,1.059h-12.8L533.9,544.442,497.09,460.413H512.1a5.134,5.134,0,0,1,3.443,1.059,6.152,6.152,0,0,1,1.765,2.383L540.076,517.7q.705,2.031,1.368,4.1t1.1,4.105q.616-2.12,1.324-4.194t1.5-4.1l21.978-53.754a5.712,5.712,0,0,1,1.942-2.472,4.95,4.95,0,0,1,3-.97Z"/><path class="cls-2" d="M696.746,535a34.345,34.345,0,0,0,13.592-2.56,28.365,28.365,0,0,0,10.151-7.193,31.934,31.934,0,0,0,6.355-11.034,43.262,43.262,0,0,0,2.206-14.167v-76.7h18.713v76.7a58.318,58.318,0,0,1-3.53,20.566,46.986,46.986,0,0,1-10.151,16.33,46.487,46.487,0,0,1-16.065,10.768,60.194,60.194,0,0,1-42.544,0,46.455,46.455,0,0,1-16.064-10.768,46.971,46.971,0,0,1-10.151-16.33,58.274,58.274,0,0,1-3.531-20.566v-76.7h18.8v76.616a44.4,44.4,0,0,0,2.163,14.211A31.288,31.288,0,0,0,673,525.245a28.348,28.348,0,0,0,10.151,7.193A34.338,34.338,0,0,0,696.746,535Z"/><path class="cls-2" d="M796.4,550.091H777.506V423.34H796.4Z"/></g></g></svg>