<?xml version="1.0" encoding="utf-8"?>
<!-- Generator: Adobe Illustrator 23.0.6, SVG Export Plug-In . SVG Version: 6.00 Build 0)  -->
<svg version="1.1" id="レイヤー_1" xmlns="http://www.w3.org/2000/svg" xmlns:xlink="http://www.w3.org/1999/xlink" x="0px"
	 y="0px" viewBox="0 0 1000 700" style="enable-background:new 0 0 1000 700;" xml:space="preserve">
<style type="text/css">
	.st0{fill:#155BFF;}
	.st1{fill:#FFFFFF;}
</style>
<title>アセット 1</title>
<g>
	<g id="レイヤー_1-2">
		<rect class="st0" width="1000" height="700"/>
		<path class="st1" d="M314.2,336.7c0.1,8.8-1.4,17.6-4.5,25.9c-5.7,15.1-17.6,27.1-32.7,32.9c-8.2,3.1-16.9,4.7-25.7,4.6h-47.7
			V273.3h47.7c8.8-0.1,17.5,1.4,25.7,4.6c15.1,5.8,27,17.8,32.7,33C312.8,319.1,314.3,327.9,314.2,336.7z M295,336.7
			c0.1-6.9-0.9-13.7-3.1-20.3c-1.9-5.6-4.8-10.8-8.8-15.2c-3.8-4.2-8.5-7.4-13.8-9.5c-5.7-2.2-11.9-3.4-18.1-3.3h-28.8v96.4h28.8
			c6.2,0.1,12.3-1,18.1-3.3c5.2-2.1,10-5.3,13.8-9.5c3.9-4.4,6.9-9.5,8.8-15.1C294,350.5,295.1,343.6,295,336.7L295,336.7z"/>
		<path class="st1" d="M332,322.9c9.5-9.3,22.3-14.5,35.6-14.2c4.7-0.1,9.3,0.8,13.6,2.5c3.8,1.6,7.2,4,10,7
			c2.8,3.1,4.9,6.8,6.1,10.8c1.4,4.5,2.1,9.2,2.1,13.9v57.2h-7.7c-1.3,0.1-2.7-0.2-3.9-0.8c-1-0.8-1.8-1.9-2.1-3.1l-1.9-7.9
			c-2.2,2-4.4,3.9-6.8,5.6c-2.2,1.6-4.6,3-7,4.1c-2.5,1.2-5.1,2-7.8,2.6c-3,0.6-6.1,0.9-9.2,0.9c-3.4,0-6.7-0.5-9.9-1.5
			c-3-0.9-5.7-2.4-8.1-4.5c-2.3-2.1-4.2-4.6-5.4-7.5c-1.4-3.3-2.1-6.9-2-10.5c0-3.6,1-7.1,2.9-10.2c1.9-3.3,5-6.2,9.4-8.8
			c5.3-3,11-5.1,16.9-6.4c8.5-1.8,17.1-2.8,25.7-2.8v-6.5c0-6.8-1.4-11.8-4.3-15.2c-2.9-3.4-7.1-5-12.7-5c-3.2-0.1-6.4,0.4-9.5,1.4
			c-2.3,0.8-4.5,1.9-6.6,3.1c-1.9,1.1-3.5,2.2-4.9,3.1c-1.2,0.9-2.7,1.4-4.3,1.4c-1.1,0-2.2-0.3-3-1c-0.8-0.6-1.5-1.4-2.1-2.3
			L332,322.9z M382.5,360.3c-6,0.1-11.9,0.7-17.8,1.6c-4.1,0.6-8.1,1.8-11.9,3.4c-2.6,1.1-4.9,2.8-6.6,5c-1.3,1.9-2,4.1-2,6.4
			c-0.1,2,0.3,4,1.1,5.8c0.7,1.5,1.7,2.9,3,4c1.3,1.1,2.8,1.8,4.5,2.2c1.8,0.5,3.7,0.7,5.6,0.7c2.5,0,4.9-0.2,7.3-0.8
			c2.2-0.5,4.2-1.3,6.2-2.3c2-1,3.8-2.2,5.6-3.6c1.8-1.5,3.6-3.1,5.2-4.9L382.5,360.3z"/>
		<path class="st1" d="M443.8,282.7c0,1.6-0.3,3.1-1,4.5c-0.6,1.4-1.5,2.7-2.6,3.8c-1.1,1.1-2.4,2-3.8,2.6c-1.5,0.6-3,0.9-4.6,0.9
			c-1.5,0-3.1-0.3-4.5-0.9c-1.4-0.6-2.7-1.5-3.8-2.6c-1.1-1.1-2-2.4-2.6-3.8c-0.6-1.4-0.9-3-0.9-4.5c0-1.6,0.3-3.2,0.9-4.6
			c0.6-1.4,1.5-2.7,2.6-3.8c1.1-1.1,2.4-1.9,3.8-2.6c1.4-0.6,3-0.9,4.5-0.9c1.6,0,3.1,0.3,4.6,0.9c1.4,0.6,2.7,1.5,3.8,2.6
			c1.1,1.1,2,2.4,2.6,3.8C443.5,279.5,443.8,281.1,443.8,282.7z M440.5,310.4v89.7h-17.2v-89.7L440.5,310.4z"/>
		<path class="st1" d="M483.1,269.8v130.3h-17.3V269.8H483.1z"/>
		<path class="st1" d="M586.1,310.4l-49.8,115.7c-0.4,1.2-1.2,2.2-2.1,3c-1.1,0.8-2.5,1.2-3.9,1.1h-12.8l16.4-35.7l-36.8-84h15
			c1.2-0.1,2.5,0.3,3.4,1.1c0.8,0.6,1.4,1.5,1.8,2.4l22.8,53.8c0.5,1.4,0.9,2.7,1.4,4.1c0.4,1.4,0.8,2.7,1.1,4.1
			c0.4-1.4,0.9-2.8,1.3-4.2c0.5-1.4,1-2.7,1.5-4.1l22-53.8c0.4-1,1.1-1.8,1.9-2.5c0.9-0.6,1.9-1,3-1L586.1,310.4z"/>
		<path class="st1" d="M696.7,385c4.7,0.1,9.3-0.8,13.6-2.6c3.9-1.6,7.3-4.1,10.2-7.2c2.8-3.2,5-7,6.4-11c1.5-4.6,2.3-9.4,2.2-14.2
			v-76.7h18.7V350c0.1,7-1.1,14-3.5,20.6c-2.2,6.1-5.7,11.6-10.2,16.3c-4.5,4.7-10,8.3-16.1,10.8c-13.7,5.2-28.8,5.2-42.5,0
			c-6.1-2.4-11.5-6.1-16.1-10.8c-4.5-4.7-7.9-10.2-10.2-16.3c-2.4-6.6-3.6-13.6-3.5-20.6v-76.7h18.8V350c-0.1,4.8,0.7,9.6,2.2,14.2
			c1.3,4.1,3.5,7.9,6.3,11.1c2.8,3.1,6.3,5.6,10.2,7.2C687.5,384.2,692.1,385.1,696.7,385z"/>
		<path class="st1" d="M796.4,400.1h-18.9V273.3h18.9V400.1z"/>
	</g>
</g>
</svg>
