<svg xmlns="http://www.w3.org/2000/svg" viewBox="0 0 900.128 675.05"><defs><style>.cls-1{fill:#fcfcfc;}.cls-2{fill:#b2dae3;}.cls-3{fill:#5c5c5c;}.cls-4{fill:#5d5d5d;}.cls-5{fill:#606060;}.cls-6{fill:#5e5e5e;}.cls-7{fill:#b9dde2;}.cls-8{fill:#fefefe;}.cls-9{fill:#fdfdfd;}.cls-10{fill:#221916;}.cls-11{fill:#27201d;}.cls-12{fill:#28201d;}.cls-13{fill:#2e2724;}.cls-14{fill:#28211e;}.cls-15{fill:#241b18;}.cls-16{fill:#292321;}.cls-17{fill:#475b5d;}.cls-18{fill:#676462;}</style></defs><title>frontartgraph</title><g id="レイヤー_2" data-name="レイヤー 2"><g id="レイヤー_1-2" data-name="レイヤー 1"><path class="cls-1" d="M427,675.5H.5v-2.466q0-335.1-.06-670.2C.44.73.964.45,2.912.45Q450.5.528,898.091.473c1.6,0,2.478-.134,2.477,2.118q-.11,335.6-.068,671.2V675.5h-464c-.44-1.444.612-2.36,1.286-3.341q12.667-18.436,25.4-36.828,12.95-18.7,25.881-37.4,21.183-30.625,42.328-61.279c8.149-11.786,16.257-23.6,24.439-35.364,2.006-2.886,2.283-2.92,5.511-1.631a83.876,83.876,0,0,0,26.741,5.734c6.472.357,12.943.837,19.412,1.286,5.889.409,11.781.813,17.676,1.158,6.723.394,13.438.919,20.158,1.338,13.616.85,27.223,1.762,40.9.786a239.388,239.388,0,0,0,27.235-3.418,199.716,199.716,0,0,0,35.5-10.107A177.4,177.4,0,0,0,790.537,473.8c23.006-17.019,40.327-38.438,49.726-65.729a95.054,95.054,0,0,0,5.575-29.347,4.154,4.154,0,0,1,1.733-3.646,21.9,21.9,0,0,0,3.364-3.333c-.857.984-1.816,1.869-2.747,2.781s-1.462.506-1.71-.564a9.272,9.272,0,0,1-.1-2.987c.976-10.265,1.216-20.581,2.039-30.851,1.309-16.359-.728-32.384-3.894-48.364a149.946,149.946,0,0,0-5.064-17.908,175.573,175.573,0,0,0-34.123-59.871A178.547,178.547,0,0,0,691.674,153.1a208.754,208.754,0,0,0-35.148-1.332,219.662,219.662,0,0,0-43.645,6.494,193.614,193.614,0,0,0-35.7,12.783,167.756,167.756,0,0,0-37.728,24.26,141.159,141.159,0,0,0-30.714,36.564A115.84,115.84,0,0,0,493.125,281.5c-.764,10.2-1.3,20.416-2.037,30.615-.819,11.279-1.5,22.567-2.288,33.847-.538,7.709-1.327,15.427-1.122,23.176.613,23.264,4.443,45.884,13.671,67.4,6.8,15.852,15.886,30.208,28.256,42.334a100.577,100.577,0,0,0,19.388,14.867c2.588,1.526,2.749,2.173,1,4.7Q522.429,538.166,495.006,578q-18.393,26.63-36.748,53.287c-9.541,13.862-19.151,27.676-28.688,41.541A7.646,7.646,0,0,1,427,675.5Z" transform="translate(-0.44 -0.45)"/><path class="cls-2" d="M427,675.5c5.05-7.407,10.076-14.83,15.156-22.216,6.258-9.1,12.571-18.16,18.845-27.248q21.8-31.573,43.581-63.158,19.462-28.193,38.944-56.372,3.258-4.713,6.576-9.384c.675-.957.866-1.575-.448-2.317-13.555-7.653-24.521-18.165-33.6-30.721-12.53-17.326-20.342-36.738-24.862-57.495a202.665,202.665,0,0,1-3.888-31.817c-.547-9.69.325-19.261.813-28.862.513-10.105,1.292-20.2,1.943-30.306q1.01-15.651,2.03-31.3a118.792,118.792,0,0,1,11.991-45.194,134.889,134.889,0,0,1,19.226-28.726A157.1,157.1,0,0,1,561.972,178.4,185.845,185.845,0,0,1,589.293,165.1a207.114,207.114,0,0,1,42.441-11.491,214.782,214.782,0,0,1,43.974-2.554,182.565,182.565,0,0,1,61.762,13.219,179.778,179.778,0,0,1,89.32,79.248,228.311,228.311,0,0,1,10.436,22.089c2.638,6.276,4.254,12.818,6.264,19.257,2.4,7.675,3.361,15.65,4.546,23.575a152.608,152.608,0,0,1,1.429,16.348,159.617,159.617,0,0,1-.811,22.1c-.341,3.467-.565,6.955-.624,10.437-.073,4.361-.51,8.682-.952,13.011-.142,1.387-.022,2.8-.022,4.838l4.437-5.539.845.822c-.981,1.871-2.735,3.1-4.2,4.545a5.3,5.3,0,0,0-1.657,3.96c-.419,13.108-3.744,25.551-8.751,37.6a128.033,128.033,0,0,1-20.754,33.6,155.346,155.346,0,0,1-36.817,31.508A186.5,186.5,0,0,1,746.394,498.2a189.314,189.314,0,0,1-27,7.817,225.809,225.809,0,0,1-33.216,4.572,228.125,228.125,0,0,1-34.611-.5c-5.866-.542-11.766-.7-17.647-1.092-9.437-.622-18.869-1.308-28.305-1.931-5.882-.388-11.763-.793-17.651-1.044a77.774,77.774,0,0,1-27.559-6.088c-1.667-.713-2.518-.6-3.613,1q-19.507,28.466-39.173,56.824-21.368,30.96-42.728,61.927-18.613,26.954-37.251,53.893c-.422.611-.759,1.281-1.136,1.924Z" transform="translate(-0.44 -0.45)"/><path class="cls-3" d="M359.473,377.168q0,1,0,2c0,5.106-.1,5.379-4.991,7.034-8.591,2.909-19.379.427-23.242-8.163-2.853-6.344-2.644-12.731,1.129-18.6,3.64-5.664,9.352-7.344,15.824-7.079a16.754,16.754,0,0,1,9.551,3.146c.871.641,1.581,1.155.633,2.345-.79.993-1.46,1.876-2.835.971a15.2,15.2,0,0,0-9.732-2.447c-7.474.536-12.26,6.344-11.666,14.26.775,10.325,9.323,15.647,19.034,11.918,1.535-.59,2.415-1.348,2.119-3.082a7.527,7.527,0,0,1-.01-1.248c0-4.106,0-4.167-4.141-4.191-1.555-.009-2.241-.4-2.254-2.1-.015-1.862,1.187-1.419,2.175-1.432,2.333-.029,4.667.033,7-.025,1.089-.027,1.469.364,1.425,1.447C359.422,373.667,359.473,375.418,359.473,377.168Z" transform="translate(-0.44 -0.45)"/><path class="cls-3" d="M228.822,386.908c2.764-6.91,5.444-13.606,8.123-20.3,1.667-4.167,3.389-8.314,4.963-12.516.474-1.266,1.178-1.729,2.406-1.511,1.179.21,2.645-.7,3.385,1.177,4.333,10.967,8.739,21.905,13.129,32.876-4.025.875-4.5.636-5.84-2.856-2.392-6.225-2.392-6.229-9.162-6.223-2.748,0-5.916-.817-8.127.28-2.252,1.118-2.416,4.653-3.381,7.166C233.236,387.817,231.077,386.867,228.822,386.908Z" transform="translate(-0.44 -0.45)"/><path class="cls-3" d="M424.85,384.84c0,2.935-.126,5.5.041,8.054.128,1.952-.633,2.307-2.422,2.362-2.074.064-1.988-1.013-1.982-2.454.034-9.237-.006-18.475.055-27.711.006-.859-.8-2.3,1.111-2.456,1.738-.143,2.71.491,2.778,2.305a9.865,9.865,0,0,0,.2,1.165c1.066-.828,1.98-1.652,3-2.31a8.669,8.669,0,0,1,13.173,4.192,18.045,18.045,0,0,1,.387,11.744C439.251,386.431,431.649,389.8,424.85,384.84Z" transform="translate(-0.44 -0.45)"/><path class="cls-3" d="M273.526,289.722c2.316-1.687,4.2-3.13,6.755-3.287,5.346-.329,8.8,2.271,9.1,7.583.3,5.225.075,10.48.121,15.722.018,1.966-1.426,1.109-2.309,1.236-1.139.163-2.084.125-2.046-1.571.1-4.408.049-8.82.022-13.229-.014-2.384-.177-4.875-2.736-5.94-2.578-1.073-5.034-.33-7.246,1.325a3.938,3.938,0,0,0-1.7,3.59c.114,4.657-.033,9.32.08,13.977.039,1.61-.51,1.994-1.99,1.9-1.3-.081-2.343.137-2.325-1.855q.149-15.849.008-31.7c-.014-1.917.978-1.834,2.335-1.91,1.559-.088,2,.446,1.964,1.974C273.461,281.437,273.526,285.341,273.526,289.722Z" transform="translate(-0.44 -0.45)"/><path class="cls-3" d="M456.526,365.736c2.285-1.687,4.161-3.133,6.711-3.3,5.527-.359,8.985,2.471,9.2,8.032.19,4.986-.014,9.986.1,14.976.041,1.743-.937,1.609-2.042,1.548-1.068-.059-2.4.466-2.338-1.546.11-3.408.03-6.822.029-10.234,0-1.082.018-2.164-.01-3.245-.065-2.494-.363-4.924-3.152-5.913-2.512-.891-6.082.349-7.916,2.477a3.134,3.134,0,0,0-.577,2.325c0,4.659-.04,9.32.02,13.979.018,1.427-.064,2.331-1.932,2.217-1.514-.092-2.387-.111-2.368-2.086q.154-15.6.01-31.2c-.014-1.807.619-2.185,2.294-2.223,1.782-.04,2.033.7,2,2.2C456.471,357.571,456.526,361.4,456.526,365.736Z" transform="translate(-0.44 -0.45)"/><path class="cls-3" d="M155.059,286.888c-3,3.19-5.728,6.286-8.679,9.158-1.214,1.181-1.03,1.786-.069,2.948,3.125,3.775,6.11,7.664,9.336,11.746-2.525.421-4.552.653-6.207-1.723-1.992-2.86-4.336-5.474-6.5-8.22-.78-.991-1.735-1.755-2.961-1.251-1.06.435-.47,1.615-.5,2.444-.08,2.493-.124,5,0,7.485.09,1.787-1.023,1.563-2.09,1.514s-2.354.5-2.342-1.528q.1-16.1,0-32.2c-.013-1.891,1.086-1.641,2.261-1.673,1.256-.034,2.213-.072,2.18,1.744-.106,5.739-.049,11.481-.023,17.222,0,.613-.351,1.458.381,1.8a1.912,1.912,0,0,0,2.23-.682c2.11-2.241,4.336-4.388,6.283-6.762C150.115,286.779,152.154,286.241,155.059,286.888Z" transform="translate(-0.44 -0.45)"/><path class="cls-3" d="M73.938,369.667c0-5.082.04-10.166-.025-15.247-.018-1.364.319-1.9,1.8-1.881,5.832.077,11.666.1,17.5-.009,1.68-.03,1.881.658,1.88,2.061,0,1.362-.328,1.907-1.806,1.875-4.247-.09-8.5.049-12.746-.07-1.7-.048-2.116.538-2.046,2.125.118,2.661.114,5.335,0,8-.064,1.517.37,2.038,1.947,1.981,3.328-.119,6.665,0,10-.056,1.409-.026,2.258.053,2.273,1.923.015,2.06-1.159,1.805-2.412,1.8-3.249-.006-6.5.085-9.747-.037-1.683-.063-2.114.524-2.062,2.135.114,3.579-.1,7.172.086,10.745.105,2.047-.912,1.979-2.384,2.031-1.637.058-2.345-.25-2.3-2.128C74.028,379.835,73.938,374.75,73.938,369.667Z" transform="translate(-0.44 -0.45)"/><path class="cls-3" d="M69.705,276.83c3.377-.868,5.378.089,6.9,3.057,2.376,4.624,5.209,9.014,7.9,13.592,2.745-4.719,5.439-9.363,8.145-14,1.831-3.136,2.281-3.317,6.291-2.619-.1,1.134-.909,1.919-1.441,2.821A71.971,71.971,0,0,1,93.06,286.9c-4.942,6.483-7.474,13.58-6.207,21.79.29,1.879-.439,2.375-2.316,2.378-1.953,0-2.742-.511-2.442-2.5,1.207-8.013-1.175-14.955-6-21.351C73.677,284.01,71.844,280.352,69.705,276.83Z" transform="translate(-0.44 -0.45)"/><path class="cls-3" d="M235.849,299.047c0-9.5,7.11-14.884,15.661-12.04a9.8,9.8,0,0,1,5.993,5.287,15.188,15.188,0,0,1,.676,11.419,10.753,10.753,0,0,1-11.79,7.53c-5.983-.63-9.766-4.223-10.4-9.9C235.9,300.515,235.886,299.68,235.849,299.047Z" transform="translate(-0.44 -0.45)"/><path class="cls-3" d="M134.453,362.4c6.99.079,11.528,5.127,11.376,12.654-.151,7.481-4.672,12.284-11.564,12.286-7,0-11.644-4.973-11.637-12.474C122.635,367.179,127.25,362.314,134.453,362.4Z" transform="translate(-0.44 -0.45)"/><path class="cls-3" d="M160.148,366.051c2.43-2.38,5.049-3.79,8.355-3.665,4.042.153,6.957,2.546,7.476,6.644.7,5.555.227,11.153.294,16.731.026,2.084-1.662,1.017-2.606,1.21-.988.2-1.723.028-1.7-1.361.076-4.415.051-8.832.017-13.249-.019-2.378-.172-4.883-2.65-6.036-2.657-1.236-5.182-.412-7.466,1.285a3.531,3.531,0,0,0-1.549,3.173c.082,4.748-.079,9.5.081,14.247.07,2.09-1.023,1.9-2.443,2.015-1.79.138-2-.661-1.983-2.16.066-6.665,0-13.332.059-20,.007-.816-.678-2.141,1.077-2.247,1.516-.092,2.659.214,2.778,2.015A13.517,13.517,0,0,0,160.148,366.051Z" transform="translate(-0.44 -0.45)"/><path class="cls-3" d="M405.239,383.874c-3.006,2.549-6.2,4.048-10.139,3.212a5.766,5.766,0,0,1-4.894-4.653,5.682,5.682,0,0,1,2.666-6.223,18.055,18.055,0,0,1,9.725-2.656c1.9-.038,2.614-.514,2.453-2.534-.353-4.424-3.436-6.438-7.687-4.762-1.149.453-2.177,1.205-3.309,1.712-1.011.453-1.707-.055-2.279-.931-.61-.935.022-1.344.612-1.824a12.235,12.235,0,0,1,11.239-2.471,6.8,6.8,0,0,1,5.319,6.52c.3,5.475.188,10.971.241,16.459.006.58.039,1.231-.81,1.253-.9.024-1.9.2-2.37-.888C405.722,385.432,405.533,384.735,405.239,383.874Z" transform="translate(-0.44 -0.45)"/><path class="cls-3" d="M119.467,307.715c-2.881,2.667-5.865,4.142-9.534,3.494a7.373,7.373,0,0,1-6.388-7.493c-.186-5.155-.028-10.322-.137-15.482-.036-1.709.936-1.578,2.071-1.608,1.294-.035,2.214.011,2.169,1.784-.111,4.326-.086,8.658-.019,12.986.065,4.181,1.367,6.023,4.384,6.494a6.322,6.322,0,0,0,7.395-6.218c0-4.412.076-8.827-.037-13.236-.044-1.743.814-1.811,2.137-1.824,1.361-.013,2.128.143,2.106,1.85-.092,6.825-.018,13.653-.065,20.48-.006.746.609,1.99-.985,2.046-1.277.045-2.6.175-2.7-1.693A10.631,10.631,0,0,0,119.467,307.715Z" transform="translate(-0.44 -0.45)"/><path class="cls-3" d="M222.977,311.393c-3.578.043-5.809-1.764-5.988-5.166-.236-4.479-.2-8.975-.183-13.464.006-1.639-.2-2.771-2.261-2.509a1.293,1.293,0,0,1-1.611-1.4c-.055-1.19.567-1.446,1.518-1.381,2.042.138,2.712-.945,2.778-2.822.049-1.4.4-2.794.537-4.2.124-1.282.837-1.6,2.014-1.627,1.545-.029,1.161,1.032,1.217,1.876.016.249-.012.5,0,.749.125,1.806-.75,4.076.377,5.3,1.047,1.132,3.305.322,5.026.35,1.113.018,1.642.253,1.656,1.519.015,1.314-.419,1.714-1.716,1.72-1.71.008-3.973-.808-5,.392-1.074,1.261-.3,3.508-.335,5.321q-.082,4.116,0,8.235c.062,3.2,1.616,4.33,4.488,3.049,1.4-.625,1.9-.174,2.539.889.9,1.5-.477,1.685-1.2,2.12A8.819,8.819,0,0,1,222.977,311.393Z" transform="translate(-0.44 -0.45)"/><path class="cls-3" d="M195.1,387.394c-3.765.015-5.935-1.777-6.118-5.219-.233-4.4-.186-8.809-.18-13.215,0-1.649-.008-3.034-2.311-2.709-.924.13-1.518-.341-1.559-1.453-.044-1.235.675-1.357,1.573-1.335,1.806.046,2.722-.678,2.694-2.624a32.246,32.246,0,0,1,.48-3.953c.145-1.308.578-2.154,2.157-2.066,1.752.1,1.085,1.35,1.139,2.183a25.96,25.96,0,0,1,0,4.238c-.161,1.621.531,2.033,2,1.9,1.072-.1,2.163.024,3.241-.031,1.141-.058,1.87.081,1.86,1.558-.008,1.374-.546,1.638-1.774,1.665-1.7.036-4.019-.829-4.949.439-.847,1.156-.32,3.345-.337,5.078-.027,2.912-.069,5.825.016,8.734.083,2.858,1.705,3.981,4.3,2.827,1.391-.619,2.086-.464,2.743.858.85,1.711-.752,1.722-1.509,2.19A8.423,8.423,0,0,1,195.1,387.394Z" transform="translate(-0.44 -0.45)"/><path class="cls-3" d="M299.178,387.391c-3.738.041-6-1.888-6.142-5.4-.179-4.405-.151-8.822-.083-13.232.026-1.671-.154-2.76-2.226-2.5-1.027.129-1.714-.359-1.729-1.589-.016-1.34.932-1.209,1.709-1.193,1.907.036,2.556-1.011,2.683-2.731.11-1.49.423-2.965.546-4.455.1-1.255.885-1.4,1.89-1.453,1.251-.067,1.281.705,1.27,1.605-.019,1.665.065,3.333-.024,4.994-.072,1.325.448,1.787,1.73,1.7,1.161-.077,2.333.031,3.5-.027s1.864.135,1.867,1.581c0,1.42-.656,1.586-1.833,1.628-5.24.186-5.239.217-5.239,5.405,0,2.914-.078,5.831.028,8.741.111,3.032,1.706,4.111,4.453,2.9,1.327-.585,1.882-.344,2.563.807.886,1.5-.4,1.733-1.157,2.163A8.917,8.917,0,0,1,299.178,387.391Z" transform="translate(-0.44 -0.45)"/><path class="cls-3" d="M203.452,293.944c0,5.078-.107,10.159.053,15.232.064,2.036-1.034,1.866-2.318,1.823-1.186-.04-2.44.391-2.42-1.725q.146-15.482.01-30.966c-.017-2.319,1.507-1.6,2.7-1.747,1.48-.188,2.045.3,2.015,1.9C203.39,283.62,203.452,288.782,203.452,293.944Z" transform="translate(-0.44 -0.45)"/><path class="cls-4" d="M273.138,367.242c1.953-2.861,3.824-4.989,7.148-4.918,2.051.043,2.839.737,2.363,2.9-.266,1.2-.707,1.389-1.813,1.365-5.111-.108-7.373,2.206-7.375,7.4,0,3.747-.1,7.5.042,11.237.067,1.775-.79,1.852-2.108,1.787-1.243-.063-2.4.27-2.359-1.81.138-6.824.059-13.652.045-20.478,0-1.132-.116-2.18,1.589-2.113,1.377.054,2.263.43,2.314,1.948C273.007,365.276,273.064,365.987,273.138,367.242Z" transform="translate(-0.44 -0.45)"/><path class="cls-4" d="M374.1,367.357c1.862-3.137,3.827-5.17,7.172-5,1.293.066,2.461.12,2.336,2.057-.108,1.678-.507,2.286-2.35,2.163-4.283-.287-6.868,2.3-6.9,6.623-.029,4-.128,8,.043,11.986.088,2.062-1.086,1.774-2.349,1.829-1.315.057-2.122-.015-2.093-1.782.111-6.825.03-13.652.063-20.479,0-.866-.518-2.107,1.217-2.132,1.411-.021,2.5.2,2.625,1.88C373.92,365.25,373.987,366,374.1,367.357Z" transform="translate(-0.44 -0.45)"/><path class="cls-3" d="M106.722,366.665c2.074-2.649,4.192-4.582,7.648-4.285,1.264.108,2.327.318,2.035,2.047-.22,1.3-.257,2.292-2.18,2.174-4.667-.288-7.189,2.34-7.2,7.1-.006,3.829-.095,7.662.042,11.486.061,1.708-.682,1.863-2.056,1.841s-2.294-.03-2.261-1.922c.117-6.741.035-13.485.057-20.227,0-.994-.41-2.268,1.416-2.258,1.519.009,2.4.471,2.341,2.135A15.95,15.95,0,0,0,106.722,366.665Z" transform="translate(-0.44 -0.45)"/><path class="cls-5" d="M168.94,298.748c0,3.5-.1,7,.042,10.489.074,1.789-.817,1.832-2.124,1.785-1.271-.046-2.376.209-2.336-1.835.136-6.908.115-13.822.013-20.731-.03-1.99,1.095-1.782,2.387-1.848,1.431-.073,2.112.257,2.054,1.9C168.857,291.917,168.94,295.334,168.94,298.748Z" transform="translate(-0.44 -0.45)"/><path class="cls-6" d="M214.985,370.85c1.242,0,2.487.055,3.725-.016,1.432-.081,2.284.105,2.258,1.952s-1.056,1.687-2.248,1.678c-2.733-.021-5.468-.083-8.2.023-1.488.058-1.55-.7-1.546-1.826s.047-1.941,1.537-1.834S213.494,370.85,214.985,370.85Z" transform="translate(-0.44 -0.45)"/><path class="cls-4" d="M166.785,282.039c-1.874-.175-2.953-1.182-2.936-3.048a2.7,2.7,0,0,1,2.762-2.93,2.783,2.783,0,0,1,3.085,2.892C169.758,280.78,168.615,281.815,166.785,282.039Z" transform="translate(-0.44 -0.45)"/><path class="cls-7" d="M867.842,340.867a4.33,4.33,0,0,1-.515-3.2c2.355-8.581,2.509-17.15-.562-25.617-.323-.891-.03-.893.687-1.207,1.233-.541.538.549.562.653A65.426,65.426,0,0,1,867.842,340.867Z" transform="translate(-0.44 -0.45)"/><path class="cls-8" d="M804.721,257.966h-7.7a.947.947,0,0,0,1.274.5c5.395-1.169,9.1,1.587,12.587,5.163,5.582,5.72,11.5,11.122,16.659,17.238a53.063,53.063,0,0,1,11.919,25.81c1.047,6.227.9,12.435.679,18.758-.341,9.893-2.743,19.2-5.679,28.47-1.275,4.022-3.081,7.874-4.573,11.83-.77,2.042-2.605.895-4.207,1.578l3.021.3c-.349,2.727-1.993,4.8-3.117,7.059a146.785,146.785,0,0,1-8.7,15.075,3.211,3.211,0,0,1-3.341,1.766c.337.854,1.2.2,1.656.861-3.469,5.393-7.46,10.487-11.447,15.571a185.984,185.984,0,0,1-21.135,22.579c-10.317,9.411-20.08,19.444-31.045,28.127a125.338,125.338,0,0,1-23.261,14.424,133.628,133.628,0,0,1-33.138,11.1,149.357,149.357,0,0,1-21.983,2.46,131.689,131.689,0,0,1-36.489-3.667,133.668,133.668,0,0,1-53.363-26.39c-2.13-1.72-4.192-3.525-6.274-5.305a9.531,9.531,0,0,1-.844-.955c1.013-.389,1.535.766,2.384.516.021-1.7-4.211-1.272-1.483-4.723-2.61,2.12-3.812.268-4.915-.768a48.328,48.328,0,0,1-6.563-7.432,9.35,9.35,0,0,0-4.726-3.965c-1.612-.483-2.833-2.478-4.084-3.924-4.732-5.466-9.937-10.5-14.4-16.22a135.786,135.786,0,0,1-15.029-24.049,132.464,132.464,0,0,1-11.094-33.139,149.558,149.558,0,0,1-2.44-21.736,131.632,131.632,0,0,1,3.678-36.738,135.587,135.587,0,0,1,26.385-53.375c6.786-8.507,14.94-15.622,22.751-23.088,4.557-4.356,9.255-8.575,14.044-12.674A85.218,85.218,0,0,1,608.3,193.115a102.169,102.169,0,0,1,25.666-5.68c4.55-.357,9.1-.942,13.656-.871a172.146,172.146,0,0,1,39.134,5.09,223.385,223.385,0,0,1,32.529,10.881,275.289,275.289,0,0,1,39.83,20.8,302.486,302.486,0,0,1,43.8,33.239C803.283,256.909,803.7,257.182,804.721,257.966Z" transform="translate(-0.44 -0.45)"/><path class="cls-8" d="M244.866,357.6c2.016,5.227,3.978,10.323,5.949,15.415.37.955-.122,1.178-.938,1.177-3.33,0-6.659-.027-9.988.013-1.817.022-1.032-1.06-.757-1.783C240.988,367.537,242.893,362.677,244.866,357.6Z" transform="translate(-0.44 -0.45)"/><path class="cls-8" d="M424.855,375.192q0-1.62,0-3.24c0-3.445,1.926-5.582,5.463-6.07,3.511-.485,5.761.976,6.679,4.421a15.9,15.9,0,0,1-.089,8.853,6.457,6.457,0,0,1-7.437,4.8c-3.121-.405-4.612-2.107-4.616-5.272C424.853,377.518,424.855,376.355,424.855,375.192Z" transform="translate(-0.44 -0.45)"/><path class="cls-8" d="M254.487,298.811a11.311,11.311,0,0,1-.771,4.885,6.226,6.226,0,0,1-6.334,4.3c-3.14,0-5.305-1.394-6.37-4.246a13.853,13.853,0,0,1-.032-9.756,6.368,6.368,0,0,1,6.347-4.339,6.29,6.29,0,0,1,6.368,4.276A11.363,11.363,0,0,1,254.487,298.811Z" transform="translate(-0.44 -0.45)"/><path class="cls-8" d="M141.429,374.908c-.024,6.068-2.862,9.384-7.766,9.067-.249-.016-.5-.023-.746-.063-4.408-.722-6.814-5.637-5.688-11.617.96-5.1,4.12-7.372,8.8-6.4a5.847,5.847,0,0,1,4.4,3.665A13.278,13.278,0,0,1,141.429,374.908Z" transform="translate(-0.44 -0.45)"/><path class="cls-9" d="M404.865,378.467c.761,3-1.065,4.063-2.859,4.952-2.053,1.017-4.274,1.579-6.4.179a3.288,3.288,0,0,1,.079-5.49c2.517-1.675,5.479-1.961,8.366-1.951C405.91,376.164,404.552,378.013,404.865,378.467Z" transform="translate(-0.44 -0.45)"/><path class="cls-10" d="M596.571,282c.332-3.493-1.645-5.259-4.612-6.485-6.382-2.637-7.867-7.791-3.366-13,4.562-5.277,9.6-10.141,14.473-15.149,1.943-2,4.268-2.428,7.078-2.065,15.352,1.984,30.727,3.791,46.094,5.659q28.375,3.452,56.752,6.9c6.2.75,12.4,1.447,18.6,2.191a15.165,15.165,0,0,1,1.906.475c.023,1.861-1.324,2.277-2.75,2.616-5.179-.007-10.259-1-15.373-1.626q-23.793-2.889-47.583-5.813c-18.5-2.275-37.035-4.349-55.517-6.8-4.61-.611-8.326.32-11.211,4.206-2.839,3.824-6.47,6.91-9.966,10.125-4.463,4.105-4.312,6.895,1.59,9.236,4.605,1.827,6.021,5.082,4.617,9.315A.538.538,0,0,1,596.571,282Z" transform="translate(-0.44 -0.45)"/><path class="cls-11" d="M769.548,385.1a10.846,10.846,0,0,1-2.05,3.937q-26.345,36.068-70.157,44.782A101.111,101.111,0,0,1,673.5,435.5c-.633-.025-1.66.375-1.453-.974a99.786,99.786,0,0,1,10.3-.209c3.214-.053,6.369-.508,9.551-.759a46.452,46.452,0,0,1,4.7-.754,23.907,23.907,0,0,0-5.087.926c-4.359.522-8.748.444-13.119.708a26.362,26.362,0,0,1-6.388-.472,1.624,1.624,0,0,1,.4-1.382,77.14,77.14,0,0,0,9.631-21.087.468.468,0,0,1,.671.113c.562.984.139,1.932-.1,2.9-1.35,5.54-3.833,10.629-6.279,15.731-1,2.077-1.033,2.122,1.345,2.089a111.133,111.133,0,0,0,42.5-8.622,109.867,109.867,0,0,0,39.851-29.315,5.527,5.527,0,0,1,1.911-1.568c2.79-1.446,3.731-4.436,5.583-6.666.545-.656.736-1.928,2.088-1.475.032.011.049.134.037.2A.917.917,0,0,1,769.548,385.1Z" transform="translate(-0.44 -0.45)"/><path class="cls-12" d="M730.884,262.556a3.824,3.824,0,0,0,2.61-2.027c4.763.008,9.427.966,14.133,1.506,6.116.7,12.212,1.59,18.313,2.419a18.577,18.577,0,0,1,1.924.49c.862.216,1.87.182,2.019,1.439a2.475,2.475,0,0,1-1.545,2.565,65.889,65.889,0,0,0-13.464,10.672c-11.605,11.95-18.14,26.115-18.959,42.826-1.2-.165-.92-1.17-1.1-1.919.15-8.911,2.71-17.244,6.448-25.209a67.063,67.063,0,0,1,15.649-21.447,51.19,51.19,0,0,1,8.248-6.266c-10.635-1.594-21.482-2.639-32.3-3.943C732.083,263.567,731.13,263.665,730.884,262.556Z" transform="translate(-0.44 -0.45)"/><path class="cls-13" d="M682.5,411.5l-.232,0-.232,0c7.6-32.493-9.258-63.3-38.081-76.309-1.761-1.15-3.851-1.3-5.793-1.89-.774-.237-1.68-.112-2.257-.864.665-1.549,1.976-1,3.128-.973A64.484,64.484,0,0,1,658.6,342.156c.834.663,1.609,1.486,2.851,1.18,2.825,1.572,4.895,4.032,6.908,6.412a70.27,70.27,0,0,1,15.62,58.512C683.746,409.422,683.894,410.837,682.5,411.5Z" transform="translate(-0.44 -0.45)"/><path class="cls-14" d="M769.548,385.1c-.99-.074-1.129.831-1.528,1.387-1.288,1.8-2.476,3.666-3.808,5.428-.38.5-.683,1.592-1.772.941-.536-1.439.719-2.1,1.366-2.963,3.624-4.818,3.577-4.712-1.046-8.22a69.932,69.932,0,0,1-27.2-43.888,5.335,5.335,0,0,1,.025-2.714c.176-.356.393-.649.86-.547a66.111,66.111,0,0,0,17.218,35.465,71.432,71.432,0,0,0,13.981,11.515C768.908,382.314,770.677,382.978,769.548,385.1Z" transform="translate(-0.44 -0.45)"/><path class="cls-15" d="M596.571,282c.1,0,.2,0,.308,0,.866.784.4,1.741.21,2.564-.71,3.036.424,5.413,2.591,7.359,2.564,2.3,5.523,3.671,9.1,3.213,1.166-.15,2.283-.027,2.54,1.341.248,1.316-.72,2-1.8,2.33a9.113,9.113,0,0,1-5.638-.141c-.664-.216-1.514-.89-2.019-.053-.415.688.262,1.424.724,1.993,2.094,2.582,4.461,4.921,6.644,7.429a13.96,13.96,0,0,1,3.347,11.338,2.013,2.013,0,0,1-.478,1.13c-.47.124-.765.041-.635-.54.853-6.09-3.389-9.605-6.988-13.282-2.283-2.333-4.487-4.757-4.643-7.957-.126-2.6-1.347-4.3-2.594-6.255C595.129,289.158,595.178,285.592,596.571,282Z" transform="translate(-0.44 -0.45)"/><path class="cls-16" d="M635.821,332.413a12.957,12.957,0,0,1,8.131,2.778c-3.659-1.121-7.169-.526-10.736.636-3.7,1.2-7.337,2.628-11.275,3.029-6.793.69-11.836-3.6-11.393-9.833a.488.488,0,0,1,.688.071c2.7,5.077,5.687,7.143,9.746,6.532a40.071,40.071,0,0,0,7.036-1.574c1.649-.563,3.3-1.134,4.961-1.648C633.915,332.116,634.877,331.681,635.821,332.413Z" transform="translate(-0.44 -0.45)"/><path class="cls-17" d="M692,433.5a18.383,18.383,0,0,1-6.691.993c-4.419.036-8.84.658-13.26.041-.013-.186-.026-.373-.04-.56a198.577,198.577,0,0,0,20-.465Z" transform="translate(-0.44 -0.45)"/><path class="cls-18" d="M736.447,334.528l-.524.556a1.235,1.235,0,0,1-1.021-1.25c-.4-3.884-.985-7.763-.588-11.685.073-.724.158-1.535,1.124-1.72l.477,2.017A120.929,120.929,0,0,0,736.447,334.528Z" transform="translate(-0.44 -0.45)"/><path class="cls-18" d="M610.9,329.035l-.176.038-.173-.05c-.462-3.1.25-6.077.912-9.062l.451.5C613.217,323.515,612.134,326.284,610.9,329.035Z" transform="translate(-0.44 -0.45)"/><path class="cls-8" d="M610.9,329.035c.119-2.883,1.141-5.659,1.014-8.571,1.163-6.347-1.7-11.075-6.037-15.271a47.831,47.831,0,0,1-4.314-4.827c-.532-.679-1.419-1.543-.458-2.633.893-1.012,1.658-.2,2.424.132a9.563,9.563,0,0,0,5.629.476c.922-.169,1.977-.513,1.645-1.979-.374-1.646-1.29-.709-2.069-.54-6.873,1.5-13.658-5.748-12.05-12.863.072-.318.132-.64.2-.961.913-5-.169-7.06-4.75-9.037-.687-.3-1.381-.579-2.053-.906-3.177-1.544-3.829-3.8-1.814-6.642a18.68,18.68,0,0,1,2.687-2.937,106.121,106.121,0,0,0,10.9-11.318,8.367,8.367,0,0,1,7.939-3.181c7.677.939,15.358,1.837,23.036,2.765q23.774,2.874,47.545,5.765,23.4,2.857,46.8,5.749c1.234.151,2.48.2,3.72.3,6.364,1.241,12.846,1.541,19.258,2.394,5.422.72,10.849,1.393,16.734,2.145a75.493,75.493,0,0,0-12.16,9.96c-10,10.617-16.466,22.977-18.777,37.44a25.542,25.542,0,0,0-.5,5.934c-.912,1.977-.608,4.08-.43,6.1.249,2.853-.049,5.774.915,8.551a61.887,61.887,0,0,0,7.446,23.277A67.423,67.423,0,0,0,766.512,383.3c1.567,1.021,1.881,1.69.653,3.181-1.679,2.039-3.159,4.242-4.725,6.375a133.5,133.5,0,0,1-18.147,17.378,105.908,105.908,0,0,1-57.78,22.293c-3.566.272-7.147.361-10.721.52-.491.021-.986-.047-1.637-.082,1.565-3.191,3.182-6.243,4.579-9.393A45.75,45.75,0,0,0,682.5,411.5a59.645,59.645,0,0,0,1.879-20.516A69.085,69.085,0,0,0,669.684,352.4a45.842,45.842,0,0,0-8.69-8.871,3.815,3.815,0,0,1-2.135-1.177,65.529,65.529,0,0,0-13.9-8.672,22.91,22.91,0,0,0-5.449-1.617c-1.221.2-2.526-.465-3.688.355-4.821.882-9.251,3.154-14.131,3.874A9.381,9.381,0,0,1,610.9,329.035Z" transform="translate(-0.44 -0.45)"/><path class="cls-17" d="M692,433.5a12.849,12.849,0,0,1,5.424-.882A11.033,11.033,0,0,1,692,433.5Z" transform="translate(-0.44 -0.45)"/><path class="cls-16" d="M639.509,332.058a7.2,7.2,0,0,1,4.395.476,57.723,57.723,0,0,1,17.09,10.99c-.165,1.1-.683.948-1.321.375C653.755,338.585,646.758,335.106,639.509,332.058Z" transform="translate(-0.44 -0.45)"/></g></g></svg>