<svg xmlns="http://www.w3.org/2000/svg" viewBox="0 0 375.488 667.075"><defs><style>.cls-1{fill:#edebd6;}.cls-2{fill:#fefefe;}.cls-3{fill:#00a628;}.cls-4{fill:#f0ecd7;}.cls-5{fill:#f3edd7;}.cls-6{fill:#eeebd7;}.cls-7{fill:#b1b1b0;}.cls-8{fill:#19af3d;}.cls-9{fill:#016436;}.cls-10{fill:#eb5700;}.cls-11{fill:#e9e8e7;}.cls-12{fill:#7a0402;}.cls-13{fill:#ea5702;}.cls-14{fill:#520401;}.cls-15{fill:#505050;}.cls-16{fill:#4c4c4c;}.cls-17{fill:#494949;}.cls-18{fill:#5c5c5c;}.cls-19{fill:#515151;}.cls-20{fill:#545454;}.cls-21{fill:#4d4d4d;}.cls-22{fill:#565656;}.cls-23{fill:#4f4f4f;}.cls-24{fill:#4b4b4b;}.cls-25{fill:#8d8d8d;}.cls-26{fill:#585858;}.cls-27{fill:#fdfdfd;}.cls-28{fill:#7b7b7b;}.cls-29{fill:#060606;}.cls-30{fill:#636363;}.cls-31{fill:#919191;}.cls-32{fill:#989898;}.cls-33{fill:#525252;}.cls-34{fill:#737373;}.cls-35{fill:#7d7d7d;}.cls-36{fill:#fcfcfc;}.cls-37{fill:#8c8c8c;}.cls-38{fill:#797979;}.cls-39{fill:#474747;}.cls-40{fill:#828282;}.cls-41{fill:#a2a2a2;}.cls-42{fill:#6b6b6b;}.cls-43{fill:#6d6d6d;}.cls-44{fill:#707070;}.cls-45{fill:#888;}.cls-46{fill:#a8a8a8;}.cls-47{fill:#595959;}.cls-48{fill:#5d5d5d;}.cls-49{fill:#7a7a7a;}.cls-50{fill:#fdfefd;}.cls-51{fill:#fdfefe;}.cls-52{fill:#fcfdfd;}.cls-53{fill:#fcfdfc;}.cls-54{fill:#f7fcf8;}.cls-55{fill:#c40306;}.cls-56{fill:#321a1a;}.cls-57{fill:#0d0202;}.cls-58{fill:#090909;}.cls-59{fill:#e59f6d;}.cls-60{fill:#ef8f00;}.cls-61{fill:#f6f6f6;}.cls-62{fill:#ededed;}.cls-63{fill:#e8e8e8;}.cls-64{fill:#f4f4f4;}.cls-65{fill:#f2f2f2;}.cls-66{fill:#fbfbfb;}.cls-67{fill:#f7f7f7;}.cls-68{fill:#f3f3f3;}.cls-69{fill:#1aaf3e;}.cls-70{fill:#08a92e;}.cls-71{fill:#14ad38;}</style></defs><title>アセット 1</title><g id="レイヤー_2" data-name="レイヤー 2"><g id="レイヤー_1-2" data-name="レイヤー 1"><path class="cls-1" d="M1,592V412c2.9-2.294,6.747-2.689,9.693-4.987a28.579,28.579,0,0,0,7.335-8.052c1.794-3.064,3.958-3.181,6.511-.978.629.543,1.23,1.118,1.849,1.672,8.766,7.847,20.268,9.2,30.4,2.972,3.959-2.432,6.377-2.289,9.862.979,14.242,13.356,34.669,8.479,41.642-9.738,1.028-2.683,2.368-4.428,5.4-3.922,10.331,1.725,19.829-.171,28.409-6.3a4.5,4.5,0,0,1,1.884-.624c2.1-.22,3.881.742,5.72,1.5a101.484,101.484,0,0,0,132.919-54.749,98.811,98.811,0,0,0,7.29-29.338c1.275-17.84.282-35.414-5.939-52.4-.626-1.71-1.281-3.43-.809-5.309.786-2.137,2.8-2.7,4.6-3.473a28.2,28.2,0,0,0,12.878-10.586c2.666-4.067,3.814-4.157,7.444-1.181,11.891,9.746,20.007,10.52,33.605,3.074,2.1-1.147,3.943-1.7,5.849.2,7.383,7.38,15.929,11.223,26.567,8.725A2.777,2.777,0,0,1,376,240V592c-1.986,1.935-4.529,1.883-7.02,1.9q-11.72.094-23.439.014c-9.179-.051-10.43-1.239-10.45-10.317-.059-27.262-.017-54.525-.023-81.788,0-2,.016-3.99-.012-5.985-.093-6.525-.355-6.743-6.714-6.9-6.805-.167-13.625.444-20.416-.371a6.677,6.677,0,0,1-2.6-.845c-2.162-1.924-.641-4.321-.828-6.5a7.853,7.853,0,0,1,.693-3.805c3.247-3.154,3.684-7.5,1.135-11.513-3.608-12.012-8.713-16.35-19.267-16.36-10.939-.011-17.346,5.611-18.664,16.383-1.631,3.388-4.328,6.727-.119,10.247a7.273,7.273,0,0,1,1.4,2.55,7.039,7.039,0,0,1,.366,2.148c-.551,2.327,2.227,5.018-.764,7.087a14.12,14.12,0,0,1-2.559.731,63.354,63.354,0,0,1-8.988.262q-102.672.016-205.345.01c-9.425,0-9.434.011-9.436,9.651q-.009,41.469-.006,82.938a51.221,51.221,0,0,1-.276,6.982c-.419,3.053-2.1,4.979-5.177,5.127-10.98.527-21.967.464-32.95.032A5.477,5.477,0,0,1,1,592Z" transform="translate(-0.758 -1)"/><path class="cls-2" d="M307.1,487.073c8.328-.022,16.663.17,24.978-.156,4.135-.162,4.992,1.4,4.977,5.193-.129,31.31.027,62.622-.19,93.931-.034,4.869,1.4,6.213,6.164,6.067C354.009,591.772,365.008,592,376,592c0,24.31-.031,48.621.051,72.931.008,2.323-.3,3.146-2.976,3.144q-184.575-.129-369.15,0c-2.675,0-2.984-.821-2.976-3.144C1.031,640.621,1,616.31,1,592c11.5,0,23-.192,34.485.1,4.378.112,5.672-1.113,5.644-5.576-.193-31.487-.047-62.977-.188-94.465-.017-3.878,1-5.142,5.033-5.135q110.96.205,221.92.156c3.115,3.746,7.342,6.234,10.835,9.558a14.874,14.874,0,0,1,1.541,3.171c3.8,4.332,12.115,3.668,15.789-1.429A48.535,48.535,0,0,1,307.1,487.073Z" transform="translate(-0.758 -1)"/><path class="cls-3" d="M2,1H375c.932,1.728.469,3.6.47,5.394q.046,56.711.023,113.419c.231,5.162-2.558,8.393-6.821,10.7-3.957,2.139-8.255,2.416-12.624,2.416q-167.485.009-334.972,0c-4.539,0-9-.282-13.079-2.594-4.05-2.3-6.683-5.459-6.49-10.4q0-56.781.023-113.561C1.531,4.586,1.069,2.722,2,1Z" transform="translate(-0.758 -1)"/><path class="cls-4" d="M1.937,120.134c1.886,6.414,6.291,9.995,13.351,10.772a36.666,36.666,0,0,0,4,.086q169.215,0,338.431,0c9.914,0,15.124-3.281,17.347-10.862q.339-1,.939-.13v27c-2.465.823-4.127-.909-5.864-2.026-9.05-5.823-25.577-5.285-33.723,7.047-2.363,3.577-5.081,4.912-9.259,3.411a17.617,17.617,0,0,0-13.626.98c-4.68,2.169-8.235,1.4-12.225-1.961-8.9-7.5-19.519-7.671-29.074-1.238a20.712,20.712,0,0,0-8.508,12.509c-1.023,3.937-3.3,5.966-7.472,5.837-10.107-.314-16.236,5.674-21.12,13.527-.958,1.54-1.466,3.379-3.141,4.407-2.832.893-5.214-.668-7.67-1.533-21.935-7.724-44.116-8.909-66.212-1.338-39.413,13.5-62.113,41.473-69.339,82.225-1.9,10.717-1.54,21.558-.543,32.368-.182,3.585,1.349,7,1.065,10.593-.679,3.276-2.905,3.143-5.37,2.4-12.833-3.863-23.646-1.431-31.589,10.067-1.7,2.461-4.045,3.483-6.94,2.482-5.515-1.908-10.854-1.216-16.031,1.057-3.772,1.656-6.956,1.337-10.038-1.579a24.133,24.133,0,0,0-14.256-6.555A6.441,6.441,0,0,1,1,318V120Q1.6,119.126,1.937,120.134Z" transform="translate(-0.758 -1)"/><path class="cls-5" d="M376,153v84c-8.488,4.535-18.747,2.314-26.2-5.671-4.268-4.572-4.268-4.572-9.117-1.3-11.811,7.973-26.536,5.126-34.541-6.678a6.165,6.165,0,0,0-2.7-2.776c-4.39,9.261-9.507,17.792-21.244,18.412-1.956-.56-2.813-2.2-3.7-3.8-9.523-17.218-22.5-31.061-39.764-40.715-1.593-.89-3.222-1.784-3.74-3.766a19.9,19.9,0,0,1,19.405-18c6.43,0,9.011-1.982,10.912-8.246,4.64-15.284,24.3-20.076,35.692-8.849,4.041,3.981,7.07,4.631,11.965,1.978a17.535,17.535,0,0,1,15.5-.822c3.424,1.452,5.34.467,7.418-2.514,7.909-11.345,20.6-15.152,31.419-9.788C371.143,146.361,374.378,148.856,376,153Z" transform="translate(-0.758 -1)"/><path class="cls-6" d="M1,409V322c6.271-3.145,11.9-.239,15.787,3.7,4.793,4.852,8.632,5.647,14.515,2.41a15.763,15.763,0,0,1,14.046-.359c3.67,1.615,5.592.319,7.736-2.757,8.126-11.658,21.651-15.106,32.762-8.727A23.026,23.026,0,0,1,90.5,319.98c3.416,4.227,4.409,9.6,6.669,14.374,8.478,17.921,21.413,31.772,37.792,42.63,1.778,1.179,3.827,2.079,4.662,4.292.261,3.153-2.062,4.243-4.308,5.4-6.684,3.448-13.9,3.8-20.919,2.22-4.735-1.062-6.019.587-7.21,4.566-2.6,8.693-8.721,13.846-17.471,16.066-9.669,2.453-17.4-1-23.6-8.109-2.7-3.1-4.553-3.152-7.813-.91-12.715,8.74-26.9,5.964-35.51-6.647a4.524,4.524,0,0,0-1.949-1.962c-1.918,1.054-2.256,3.338-3.146,5.14A24.914,24.914,0,0,1,6.663,408.19C4.914,409.119,3.076,410.064,1,409Z" transform="translate(-0.758 -1)"/><path class="cls-7" d="M376,153c-5.376-4.717-10.508-9.393-18.605-9.217-9.714.211-16.458,4.536-21.023,12.709-1.319,2.362-2.244,4.579-5.54,2.833-7.621-4.037-14.93-2.492-21.747,1.831-2.754,1.746-3.88,1.455-5.894-1.088-9.144-11.545-23.6-12.088-33.227-1.579-3.083,3.367-4.315,7.553-4.786,11.825-.347,3.141-1.572,3.949-4.422,3.718-5.558-.449-10.823.079-15.739,3.379-5.024,3.372-8.141,7.689-9.106,13.613-2.163,1.035-3.564.55-3.94-1.977,4.088-12.483,12.106-18.776,24.84-19.046,3.333-.071,4.479-1.324,5.3-4.431a24.646,24.646,0,0,1,41.168-11.5c2.756,2.654,4.81,3.01,8.177,1.407,5.695-2.71,11.715-3.7,17.822-.967,1.951.874,3.512.567,4.6-1.466,8.106-15.172,28.949-17.345,40.825-6.765A6.538,6.538,0,0,0,376,147Z" transform="translate(-0.758 -1)"/><path class="cls-7" d="M1,409c8.949-2.768,14.6-8.835,17.668-17.545.356-1.012-.075-2.7,1.424-2.878,1.517-.178,2.258,1.274,2.813,2.438A21.325,21.325,0,0,0,36.3,402.88c7.987,2.431,15.683,1.791,21.9-4.143,3.8-3.627,5.5-3.044,8.5,1.027a22.219,22.219,0,0,0,37.247-2.333,21.9,21.9,0,0,0,2.817-7.915c.481-3.781,2.084-3.678,5.049-2.779A31.471,31.471,0,0,0,135.555,385c1.71-.838,3.274-1.675,3.416-3.846,2.678-.87,4.482-.131,5.109,2.775-9.142,7.267-19.381,9.952-30.871,7.368-2.133-.48-2.729.52-3.315,2.5-5.817,19.666-30.409,25.5-44.8,10.557-2.357-2.448-3.422-3.059-6.619-.842-10.878,7.542-24.465,5.889-34.084-3.7-2.342-2.335-3.3-3.206-5.5.488C14.963,406.9,9.452,411.916,1,412Z" transform="translate(-0.758 -1)"/><path class="cls-7" d="M281.888,238.055c9.955-1.478,15.817-7.661,19.384-16.636.519-1.3.1-3.529,1.786-3.785,1.912-.29,2.55,1.8,3.3,3.218,4.972,9.385,13.118,12.594,23.238,12.141,5.549-.248,9.527-3.544,13.562-6.749,1.263-1,2.506-2.9,3.967-.6C354.018,236.483,363.949,239.385,376,237v3c-11.047,4.411-20.248.725-28.155-6.969-2.412-2.346-3.47-2.475-6.262-.558a26.141,26.141,0,0,1-33.785-3.25c-2.418-2.419-3.736-4.115-6.154.41-3.717,6.954-10.239,10.711-17.918,12.374C281.466,241.456,280.911,240.111,281.888,238.055Z" transform="translate(-0.758 -1)"/><path class="cls-7" d="M89.972,321.025a23.21,23.21,0,0,0-37.164,7.567c-1.017,2.3-2.516,3-4.742,1.82-8.009-4.261-15.56-2.472-22.624,2.107-2.68,1.737-3.583.756-5.045-1.291C15.672,324.61,9.033,321.783,1,322v-4a25.325,25.325,0,0,1,20.578,8.213c1.383,1.472,2.687,2.125,4.79,1.121,6.623-3.162,13.414-4.938,20.6-1.6,1.365.634,2.51.1,3.372-1.236,8.695-13.474,20.64-16.759,35.339-11.116,1.628.626,2.091-.089,2.38-1.409C91.617,314.374,91.848,317.477,89.972,321.025Z" transform="translate(-0.758 -1)"/><path class="cls-8" d="M1.937,120.134l-.454-.167L1,120Q1,62.49,1.06,4.979C1.063,3.689-.059,1.893,2,1Z" transform="translate(-0.758 -1)"/><path class="cls-8" d="M376,120l-.483-.036-.456.166Q375.031,60.565,375,1c2.067.9.936,2.7.939,4Q376.052,62.5,376,120Z" transform="translate(-0.758 -1)"/><path class="cls-3" d="M281.888,238.055a7.1,7.1,0,0,0,1.838,3.952c7.267,18.066,9.36,36.871,7.988,56.164a25.189,25.189,0,0,1-.536,2.889c-2.527,12.335-5.574,24.488-12.333,35.349-17.473,28.078-42.388,45.253-75.19,49.947C155.8,393.2,111,367.323,92.37,322.524c-2.841-6.833-3.733-14.289-5.553-21.451-3.892-35.608,4.508-67.428,31.215-92.308,32.547-30.321,70.3-35.98,111.6-20.462.765.287,1.559.5,2.34.744a7.131,7.131,0,0,0,3.941,1.977C256.1,201.947,271.29,217.757,281.888,238.055Z" transform="translate(-0.758 -1)"/><path class="cls-9" d="M86.817,301.073c2.31.733.939,2.968,1.74,4.387.786,1.394.884,3.172,1.317,4.772,5.589,20.653,16.638,37.66,33.05,51.514,20.413,17.231,43.987,25.079,70.31,24.1a98.95,98.95,0,0,0,60.709-23.123c19.52-16.107,31.617-36.36,36.149-61.2.111-.608.544-.731,1.086-.456-3.963,37.165-22.84,64.624-55.681,81.625-29.329,15.184-59.728,15.147-89.977,1.616a8.878,8.878,0,0,0-1.44-.378l-5.11-2.775c-22.544-13.41-38.97-31.9-47.4-57.044a21.758,21.758,0,0,0-1.6-3.08,22.46,22.46,0,0,0-1.913-9.051Z" transform="translate(-0.758 -1)"/><path class="cls-10" d="M267.754,465.843c-1.321-5.3,1.077-10.69,6.35-14.281,8.524-5.8,21.582-4.711,28.378,2.41,3.221,3.376,5.212,7.233,4.382,12.094.355.906-.21,1.368-.86,1.791-3.237,1.025-6.656,1.367-9.852,2.581a4.708,4.708,0,0,1-2.2-.3c-3.879-1.3-7.818-.478-11.739-.327a9.344,9.344,0,0,1-3.1-.257c-3.529,0-7.076.127-10.328-1.627A1.921,1.921,0,0,1,267.754,465.843Z" transform="translate(-0.758 -1)"/><path class="cls-11" d="M277.947,497.006c-3.838-2.815-9.058-4.231-10.052-9.926l2.2-.12c7.044.776,13.942,2.547,21.015,3.089,2.5,2.154.848,4.773.843,7.263,4.037-1.483.558-4.766,1.618-6.95,3.344-2.317,6.838-4.159,11.116-3.526l2.411.236c-2.832,5.71-8.061,9.5-11.888,14.438-3.072,3.966-8.875,2.843-13.673,2.1-1.89-.294-2.712-1.765-2.494-3.71,1.407-2.087,4.979-.549,6.314-3.986C282.57,496.393,280.382,498.1,277.947,497.006Z" transform="translate(-0.758 -1)"/><path class="cls-12" d="M305.839,467.164l1.026-1.1a9.537,9.537,0,0,1,1.477-.158c1.57.072,2.131,2.15,1.7,2.263-5.257,1.375,5.528,9.681-3.919,8.955-.967.12-1.167,1.587-2.348,1.352-5.957.959-11.914,3.22-17.89,2.246-4.766-.777-9.833.317-14.33-2.1a16.993,16.993,0,0,1-2.636.34c-1.9-1.4-2.177-4.815-5.686-4.338-.848.115-1.548-1.158-1.252-2.322.6-2.354,2.88-.739,4.117-1.738-.8-1.112-2.775-1.7-1.856-3.594.733-1.512,2.2-1.191,3.516-1.126q.575.744,1.154,1.488c3.081,5.526,8.843,4.709,13.789,5.816,3.135,2.781,6.276,2.717,9.423,0C296.874,471.562,302.685,472.415,305.839,467.164Z" transform="translate(-0.758 -1)"/><path class="cls-13" d="M304.686,486.836c-3.462,2.046-7.362,2.883-11.147,4.035a.722.722,0,0,1-1.113.029c-7.691.084-15.432.456-22.332-3.939-.4-1.941-2.256-3.586-1.183-5.826,2.7-1.311,4.623,1.14,7.029,1.484,8.825,1.262,17.523,1.38,26.1-1.35,1.272-.405,2.48-.99,3.834-.384C306.661,483.105,305.45,484.926,304.686,486.836Z" transform="translate(-0.758 -1)"/><path class="cls-14" d="M305.878,480.885c-12.285,5.71-24.6,6.283-36.967.249q0-1.085.006-2.172l1.98-1.953c2.214,2.182,4.558,3.382,7.959,2.741,3.33-.628,6.572,1.268,10.151.91,5.2-.519,10.192-1.863,15.3-2.7.7-.062.5-2.089,1.814-.837Z" transform="translate(-0.758 -1)"/><path class="cls-15" d="M187.831,634.562h-2c-8.263,0-8.244,0-8.74-8.051-.053-.85.647-2.286-.735-2.47-5.372-.715-2.2-2.654-.641-4.247,3.373-3.447,6.907-6.74,10.2-10.263,1.675-1.794,2.777-1.658,4.4.051,3.543,3.742,7.287,7.293,10.907,10.964.833.845,2.557,2.656.709,2.936-4.112.624-3.168,3.346-2.877,5.516.631,4.709-1.286,6.223-5.736,5.6A40.254,40.254,0,0,0,187.831,634.562Z" transform="translate(-0.758 -1)"/><path class="cls-16" d="M174.82,543.283c1.89-.223,4.69,1.263,5.095-2.642.087-.833,2.258-1,2.442-.187.958,4.208,3.911,2.288,6.221,2.246.883-.017,1.694-.125,1.946.947s-.575,1.339-1.313,1.764c-1.953,1.126-6.1-.578-5.944,1.71.233,3.363,3.675.344,5.635.92a1.267,1.267,0,0,1,1.052,1.368c.047,1.032-.588,1.314-1.483,1.594-1.849.578-4.916-1.182-5.385,1.93-.49,3.251,3.345,2.487,4.829,4.056a12.146,12.146,0,0,0,2.1,1.325c1.052.718.907,1.5.286,2.525-.8,1.331-1.552.879-2.336.157-2.562-2.359-4.27-3.073-6.885.667-1.8,2.567-5.873,1.964-8.7-.01-2.425-1.7-1.9-5.068,1-6.453a20.392,20.392,0,0,1,4.811-1.116c.662-.131,1.4-.206,1.483-.995.115-1.134-.814-1.205-1.632-1.381-2.29-.493-6.531.986-6.477-1.5.066-2.993,4.056-.559,6.207-1.259.753-.245,1.748-.04,1.826-1.187.094-1.383-.9-1.584-1.958-1.62-1.5-.051-3-.02-4.489-.142-1.187-.1-3.023.482-2.777-1.724.2-1.806,1.744-.989,2.777-1.072A14.047,14.047,0,0,1,174.82,543.283Z" transform="translate(-0.758 -1)"/><path class="cls-17" d="M117.044,551.95c.366-3.308-1.655-8.456.772-10.513,2.267-1.92,7.252-.644,11.041-.749,1.5-.041,3,.07,4.5-.037,1.923-.139,2.636.581,2.6,2.564-.1,6.16-.063,12.323-.007,18.485.023,2.61-1.1,2.646-3.064,1.7a14.46,14.46,0,0,0-12.669-.1c-2.66,1.229-3.237.744-3.186-1.882C117.088,558.421,117.044,555.423,117.044,551.95Z" transform="translate(-0.758 -1)"/><path class="cls-18" d="M292.051,621.17c0-3.652-.043-7.3.017-10.956.046-2.785,1.458-4.274,4.344-4.263q8.715.033,17.43,0c3.353-.014,4.823,1.757,4.828,4.956q.015,10.209,0,20.418c0,3.122-1.17,5.009-4.711,4.93-5.807-.13-11.62-.08-17.429-.039-3.153.023-4.522-1.526-4.488-4.588C292.079,628.142,292.049,624.656,292.051,621.17Z" transform="translate(-0.758 -1)"/><path class="cls-16" d="M165.032,558.854c-.183.722-.72,1.807-1.052,1.494-3.248-3.061-4.151,1.344-6.224,1.909-2.575.7-4.967.862-7-1.013-.894-.824-1.914-1.909-1.376-3.413.873-2.438,2.594-3.881,5.224-3.793,1.921.065,2.588-.558,2.579-2.536-.01-2.128-.7-3.046-2.867-2.863a19.712,19.712,0,0,1-2.979-.188,1.4,1.4,0,0,1-1.475-1.583c.055-.986.62-1.423,1.66-1.23,3.553.657,6.283.295,5.666-4.454-.093-.713.747-.956,1.471-.93a1.381,1.381,0,0,1,1.447,1.606c-.084,2.011-.021,3.741,2.829,3.152.8-.165,1.715,0,1.742,1.164.022.957-.6,1.346-1.419,1.754-4,2-4.241,5.5-.642,8.208C163.613,556.89,165.18,557.172,165.032,558.854Z" transform="translate(-0.758 -1)"/><path class="cls-19" d="M200.335,549.643c.065-1.661-.767-2.162-2.171-2.235-.83-.044-1.708-.2-1.85-1.258-.131-.983.407-1.8,1.333-1.641,2.88.5,3.073-1.515,4.335-3.353,1.954-2.847,3-.872,2.97,1.677-.015,1.2.873,1.179,1.723,1.166,1.108-.017,2.509-.48,2.37,1.479-.094,1.317-1.051,1.6-2.106,1.545-2.973-.158-3.364,1.922-3.92,4.132-.809,3.216-1.891,6.363-2.848,9.543-.393,1.3-.648,2.71-2.622,1.971-1.99-.745-1.095-1.9-.634-3.158C198.115,556.244,199.2,552.935,200.335,549.643Z" transform="translate(-0.758 -1)"/><path class="cls-20" d="M105.005,555.138c-4.822,0-8.613.027-12.4-.017-1.047-.012-2.567.531-2.688-1.249-.114-1.686,1.219-1.632,2.42-1.627,4.652.018,9.307-.075,13.955.06,2.782.082,4.376,1.029,1.942,3.921-1.71,2.032-3.315,4.154-4.909,6.279-.837,1.117-1.62,2.286-3.183,1.2-1.965-1.367-.109-2.167.571-3.077C101.887,559.05,103.13,557.524,105.005,555.138Z" transform="translate(-0.758 -1)"/><path class="cls-21" d="M92.81,548.11c-.869.464-1.767.882-2.6,1.4-1.172.735-2.148.785-2.818-.606-.631-1.309.326-1.687,1.249-2.137a25.447,25.447,0,0,0,8.155-6.292c1.833-2.112,3.7-1.69,5.412.273a25.323,25.323,0,0,0,7.437,5.636c.967.512,2.977.487,1.956,2.576-.877,1.795-2.067,1.068-3.251.37-.708-.418-1.432-.808-2.149-1.21-1.325.675-2.115-.358-3.05-.941q-3.64-4.447-7.3-.009C94.927,547.768,94.129,548.8,92.81,548.11Z" transform="translate(-0.758 -1)"/><path class="cls-22" d="M145.848,540.32c1.7.217,1.783,1.04,1.442,2.464a36.375,36.375,0,0,0-1.136,7.357c-.032,1.113-1.919,3.813,2.035,3.314,1.522-.192.832,2.315.07,3.2-1.618,1.885.157,6.556-3.415,6.018-3.038-.457-1.752-4.431-1.906-6.863a44.483,44.483,0,0,1,.986-13.363C144.214,541.254,144.278,540.082,145.848,540.32Z" transform="translate(-0.758 -1)"/><path class="cls-18" d="M99.225,591.9c-2.422-1.13-4.925-.685-7.38-.786-.931-.038-2.176.211-2.2-1.252-.024-1.285.975-1.467,2.048-1.561,2.527-.223,5.742,1.245,6.869-2.7.057-.2,1.7-.228,1.724-.115,1.105,4.361,4.658,2.431,7.256,2.857.916.15,1.615.488,1.636,1.471.023,1.085-.816,1.276-1.68,1.293C104.706,591.158,101.888,590.849,99.225,591.9Z" transform="translate(-0.758 -1)"/><path class="cls-23" d="M150.629,591.734c-2.967,0-5.935.024-8.9-.015a1.305,1.305,0,0,1-1.451-1.54c.079-.831.747-.987,1.417-1.023q9.392-.5,18.785-.985a1.4,1.4,0,0,1,1.689,1.327c.143,1.267-.629,1.692-1.693,1.957C157.2,592.271,153.909,591.443,150.629,591.734Z" transform="translate(-0.758 -1)"/><path class="cls-24" d="M204.556,591.764q-3.468,0-6.935,0c-1.049,0-2.149-.2-2.235-1.413-.108-1.525,1.194-1.174,2.106-1.2,2.984-.082,6.658,1.71,7.962-2.972a2.217,2.217,0,0,1,1.34-.061c1.427,4.062,4.582,2.824,7.457,2.526a1.141,1.141,0,0,1,1.3,1.165c.061,1.084-.775,1.361-1.612,1.434-3.12.27-6.245.488-9.368.725Z" transform="translate(-0.758 -1)"/><path class="cls-25" d="M65.048,618.96c-5.237,1.074-.65,4.3-1.267,6.472-4.826-4.6-4.8-5.3.38-8.2,4.766-2.663,9.634-5.15,14.319-7.946,2.659-1.586,4.4-1.75,5.7,1.544a72.546,72.546,0,0,0,3.514,6.821c-1.5.368-1.793-.229-2.148-.783-4.5-7.033-4.526-7.081-11.673-3.111-3.012,1.673-6.313,2.878-8.9,5.273Z" transform="translate(-0.758 -1)"/><path class="cls-26" d="M213.207,562.881c-6.519-.01-9.453-2.833-7.511-6.863.5-1.026.92-2.316,2.44-1.885,1.363.386.822,1.449.7,2.43-.481,3.87,2.474,2.8,4.566,3.266,1.778.4,4.963-2.806,5.093.892C218.6,563.635,214.833,562.265,213.207,562.881Z" transform="translate(-0.758 -1)"/><path class="cls-16" d="M89.864,620.075c.134,4.458,1.875,10.089-.578,13.028-2.335,2.8-8.117.818-12.374.858-12.742.12-12.743.043-11.876-13.941.973-.222,1.483.363,1.914,1.087a7.073,7.073,0,0,1,.592,2.394c.723,7.584.722,7.658,8.17,7.757,3.453.045,7.386,1.237,10.241-.692,2.98-2.014.564-6.322,2.028-9.327C88.394,620.5,88.888,619.9,89.864,620.075Z" transform="translate(-0.758 -1)"/><path class="cls-27" d="M299.022,642.065c2.625-.863,5.179-3.07,7.987-.418-.16,2.506-.2,5.031-1.175,7.408l-1.867-.066C298.7,649.266,299.794,645,299.022,642.065Z" transform="translate(-0.758 -1)"/><path class="cls-28" d="M66.03,621.047l-.994-1.027q.006-.529.011-1.06l-.076.072c7-.016,14-.092,20.993,0,1.3.018,3.056-.95,3.9,1.04l-.971,1.075A31.883,31.883,0,0,1,66.03,621.047Z" transform="translate(-0.758 -1)"/><path class="cls-29" d="M277.947,497.006c1.514-1.878,5.946.449,5.823-3.974a3.82,3.82,0,0,1,2.671.609c1.461,1.4.616,3.1.613,4.686,0,1.221-.462,1.671-1.792,1.573-2.062-.15-4.145-.017-6.22,0A4.006,4.006,0,0,1,277.947,497.006Z" transform="translate(-0.758 -1)"/><path class="cls-30" d="M103.8,546.089l2.4,2.035c-2.838,2.688-10.585,2.68-13.391-.014l2.292-2.07A23.661,23.661,0,0,1,103.8,546.089Z" transform="translate(-0.758 -1)"/><path class="cls-31" d="M291.418,641.946c1.948.713,1.316,2.615,2.84,3.622,1.218-.8.82-3.038,2.765-3.639,1.726,1.871.831,4.177.823,6.323-1.558-1.478-2.917,1.324-4.686.085C290.436,646.429,290.325,646.587,291.418,641.946Z" transform="translate(-0.758 -1)"/><path class="cls-32" d="M188.956,642.037a2.1,2.1,0,0,1,2.144,1.748,18.75,18.75,0,0,0,.867,1.8c1.6-.933.974-3.389,3.35-3.628a6.986,6.986,0,0,1,.227,6.362c-.25.566-2.813.486-4.156.119C187.9,647.489,188.507,644.773,188.956,642.037Z" transform="translate(-0.758 -1)"/><path class="cls-33" d="M211.919,551.064c-1.3-.867-4.28,2.354-4.62-.709-.337-3.023,3.162-1.8,5.012-2.338a2.961,2.961,0,0,1,1.487-.025c1.4.35,3.928-1.1,3.892,1.562-.035,2.637-2.565,1.084-3.95,1.488A7.774,7.774,0,0,1,211.919,551.064Z" transform="translate(-0.758 -1)"/><path class="cls-32" d="M75.744,648.569c.3-2.643-3.057-7.083,3.074-6.626.823.061,1.693.151,2.04,1.086a1.718,1.718,0,0,1-1.149,2.364A8.831,8.831,0,0,0,75.744,648.569Z" transform="translate(-0.758 -1)"/><path class="cls-34" d="M179.077,648.785c-1.218-1.2-.372-3.133-2.206-3.442-2.544-.429-1.271,2.518-2.9,3.389V642c1.831,2.766,3.506,2.49,5.308.01C180.208,644.625,180.246,646.6,179.077,648.785Z" transform="translate(-0.758 -1)"/><path class="cls-35" d="M82.989,643.088c1.752-2.193,3.832-1.708,5.375-.093,1.4,1.47.875,3.441-.42,4.948a3.144,3.144,0,0,1-4.806.412c-1.534-1.483-2.413-3.541-.072-5.349a14.639,14.639,0,0,0,1.957,2.061A10.538,10.538,0,0,0,82.989,643.088Z" transform="translate(-0.758 -1)"/><path class="cls-30" d="M258.656,587.7c-.807,1.466-.562,3.743-2.924,4.1-1.135.172-2.195-.337-1.7-1.592.6-1.5.109-3.9,2.6-4.14C257.6,585.977,258.644,586.293,258.656,587.7Z" transform="translate(-0.758 -1)"/><path class="cls-36" d="M187.05,645.263l-.977,2.346c-2.1,1.744-3.633.826-4.376-1.294-.424-1.208-.831-3.055,1.134-3.669C185.128,641.928,186.48,643.039,187.05,645.263Z" transform="translate(-0.758 -1)"/><path class="cls-37" d="M228.953,589.3c0,1.456-.286,2.717-2.126,2.665-1.939-.054-1.708-1.531-1.911-2.851-.322-2.1,1.189-1.87,2.375-2.055C229.221,586.754,228.882,588.189,228.953,589.3Z" transform="translate(-0.758 -1)"/><path class="cls-38" d="M313.171,642c1.912,1.914-.376,5.622,2.712,5.639,2.776.015,1.163-3.636,2.774-5.681.484,2.79.8,5.067-1.254,6.7a3.045,3.045,0,0,1-2.8.128C312.158,647.24,312.907,644.788,313.171,642Z" transform="translate(-0.758 -1)"/><path class="cls-39" d="M239.366,588.82c-.2,1.3.318,2.774-1.435,2.86-2.086.1-1.685-1.551-1.7-2.769-.016-1.077-.313-2.495,1.379-2.61C239.793,586.152,238.988,588,239.366,588.82Z" transform="translate(-0.758 -1)"/><path class="cls-40" d="M187.05,645.263c-1.243-.97-1.826-3.3-4.121-2.12-1.307.671-.965,1.978-.734,3.01.521,2.315,2.29,1.74,3.878,1.456-.985,2.586-2.816,1.717-4.23.75-1.548-1.06-1.346-2.94-.982-4.554.492-2.181,2.33-1.955,3.985-1.911C187.188,641.956,187.515,643.355,187.05,645.263Z" transform="translate(-0.758 -1)"/><path class="cls-41" d="M309.43,645.638c1.021-.873.016-2.692,1.863-3.5.932,2.324,1.572,4.877-.323,6.539-1.066.934-1.764-1.267-2.273-2.391Q308.42,645.239,309.43,645.638Z" transform="translate(-0.758 -1)"/><path class="cls-42" d="M69.809,647.144c5.595,1.833,1.55-3.871,3.97-4.8.376,2.2.994,4.478-.957,6.152a2.5,2.5,0,0,1-3.831-.493c-.181-.247-.311-.509-.21-.683C69.034,646.887,69.43,647.008,69.809,647.144Z" transform="translate(-0.758 -1)"/><path class="cls-43" d="M216.156,543.05c.374-1.249-1.964-2.125-.506-3.5.61-.574,1.246-.266,1.643.309.676.981,2.357,1.657,1.34,3.244-.831,1.3-1.707-.153-2.579-.157Z" transform="translate(-0.758 -1)"/><path class="cls-41" d="M305.834,649.055c.286-2.486-1.53-5.306,1.175-7.408q1.209,2,2.42,3.991-.37.318-.732.65c-.564-.211-1.271-1.284-1.557.233C306.955,647.5,307.464,648.824,305.834,649.055Z" transform="translate(-0.758 -1)"/><path class="cls-44" d="M66.218,642.636c1.663,2.245,1.405,4.484-.819,5.919-1.774,1.144-3.827.964-4.806-1.516a2.108,2.108,0,0,1,1.077-.682c1.989,0,2.836-1.378,3.519-2.952A2.32,2.32,0,0,1,66.218,642.636Z" transform="translate(-0.758 -1)"/><path class="cls-15" d="M169.726,591.746c-1.281.078-1.708-.645-1.733-1.792-.026-1.127.325-1.865,1.616-1.869,1.183,0,1.813.489,1.777,1.718C171.355,590.905,170.959,591.683,169.726,591.746Z" transform="translate(-0.758 -1)"/><path class="cls-45" d="M61.825,647.04H60.594c-.972-5.042.183-5.945,5.624-4.4a1.209,1.209,0,0,1-.549.557A31.737,31.737,0,0,0,61.825,647.04Z" transform="translate(-0.758 -1)"/><path class="cls-46" d="M69.809,647.144q-.409.432-.818.863c-1.641-1.811-1.389-3.734-.459-6.133C70.406,643.59,69.706,645.463,69.809,647.144Z" transform="translate(-0.758 -1)"/><path class="cls-47" d="M197.511,642.265c1.308,2.248-1.378,6.966,4.435,6.008C196.424,649.221,196.424,649.221,197.511,642.265Z" transform="translate(-0.758 -1)"/><path class="cls-47" d="M299.022,642.065c.316.307.945.67.9.911-.612,3.355.8,5.283,4.044,6.013C297.319,650.251,299.2,645.426,299.022,642.065Z" transform="translate(-0.758 -1)"/><path class="cls-48" d="M216.054,542.949c-.359.808-.05,2.405-1.378,2.144-1.752-.343-2.12-2.109-2.828-3.489,2.456-1.588,2.655,1.712,4.306,1.446Z" transform="translate(-0.758 -1)"/><path class="cls-49" d="M53.563,643.372c.7,2.246.446,5.2,4.287,4.853C53.348,649.028,52.983,648.619,53.563,643.372Z" transform="translate(-0.758 -1)"/><path class="cls-2" d="M162.567,31.687a10.954,10.954,0,0,1,7.557-10.937c4.749-1.62,10.7-.041,13.179,4.456q8.3,15.03,15.719,30.537c2.39,5,.264,10.032-4.422,12.849-4.987,3-11.5,2.762-14.464-1.758A212.869,212.869,0,0,1,162.928,33.8,7.851,7.851,0,0,1,162.567,31.687Z" transform="translate(-0.758 -1)"/><path class="cls-2" d="M229.151,59.132a10.994,10.994,0,0,1-7.359,10.6c-4.874,1.707-10.5.569-12.956-3.611a283.852,283.852,0,0,1-16.355-31.913c-2.048-4.787.63-10.283,5.164-12.766S208.6,19.4,211.323,23.532c7.036,10.69,12.549,22.249,17.645,33.987A4.575,4.575,0,0,1,229.151,59.132Z" transform="translate(-0.758 -1)"/><path class="cls-50" d="M157.294,96.747c-1.306,1.569-1.006,3.183-.8,4.557.637,4.266-1.451,5.056-5.114,4.768-2.14-.168-3.4-.395-3.354-3.005.133-7.329.121-14.663,0-21.993-.039-2.436.88-3.2,3.216-3.11,3.661.149,7.336-.063,10.994.107,4.17.193,7.408,2.072,8.754,6.2s.77,7.912-3.023,10.669c-.922.671-2.252,1.14-1.642,2.632.52,1.273,1.468,2.5,2.99,2.178,3.146-.672,4.7,1.128,4.626,3.626-.088,2.842-3.015,2.493-5.025,2.807-4.589.717-7.661-1.235-9.485-5.479C158.884,99.429,159.332,97.594,157.294,96.747Z" transform="translate(-0.758 -1)"/><path class="cls-2" d="M214.733,94.6c-1.843,2.078-1.128,3.982-1.25,5.731-.192,2.767,1.065,5.786-4.077,5.863-5.454.082-4.3-3.137-4.312-6.109-.031-5.986-.074-11.974.037-17.959.027-1.446-.994-3.781,1.555-4.013,2.137-.194,4.62-1,6.232,1.68,1.539,2.554,3.371,4.937,5.149,7.34.525.71.916,1.981,2.218,1.392.933-.422.632-1.427.667-2.21a22.341,22.341,0,0,0,0-3.49c-.37-3.29.146-5.039,4.344-5.009s3.969,2.088,3.923,4.924c-.1,6.152.056,12.308-.09,18.457-.038,1.594,1.173,4.087-1.274,4.643-2.5.568-5.151.681-6.875-2.366A104.573,104.573,0,0,0,214.733,94.6Z" transform="translate(-0.758 -1)"/><path class="cls-51" d="M159.218,34.944c3.7,7.179,6.582,13.764,10.368,19.778,3.069,4.877,1.419,8.415-1.6,12.028-3.32,3.975-9.316,4.886-14.1,2.323-4.745-2.544-7.271-7.7-5.185-12.625C151.725,49.323,155.475,42.507,159.218,34.944Z" transform="translate(-0.758 -1)"/><path class="cls-50" d="M200.365,88.836c0,1.66.029,3.322-.009,4.982-.189,8.43-4.142,12.557-12.016,12.572-7.589.015-11.828-4.43-12.017-12.711-.087-3.818.213-7.657-.087-11.453-.295-3.718,1.366-4.263,4.622-4.35,3.5-.093,4.217,1.271,4.066,4.354-.2,4.141-.036,8.3-.04,12.452,0,2.433.725,4.406,3.551,4.371,2.747-.035,3.6-1.918,3.595-4.386-.008-4.484.21-8.979-.043-13.448-.22-3.888,2.308-3.08,4.547-3.253,2.565-.2,4.154.287,3.878,3.4C200.193,83.838,200.368,86.345,200.365,88.836Z" transform="translate(-0.758 -1)"/><path class="cls-52" d="M224.975,294.587c-4.779,1.436-6.685-.066-6.693-4.787a5.852,5.852,0,0,0-8.715-4.973c-2.59,1.467-.783,4.244-1.243,6.381-.336,1.559.9,3.9-2.32,3.832-1.872-.039-3.116-.1-3.068-2.575.137-7.159.082-14.321.026-21.482-.014-1.82.458-2.8,2.514-2.717,3.989.153,8.023-.18,11.97.281,6.816.8,9.233,6.748,5.276,12.4-.418.6-1.781,1.12-1.057,1.793A7.12,7.12,0,0,1,224,288.532C223.946,290.611,223.877,292.7,224.975,294.587Z" transform="translate(-0.758 -1)"/><path class="cls-53" d="M140.771,267.767c3.474-.008,6.636.783,8.765,3.79.914,1.291,2.406,3.085.777,4.281a3.289,3.289,0,0,1-4.794-.892c-1.675-2.638-4.153-3.074-6.951-2.35a2.889,2.889,0,0,0-2.531,2.692c-.078,1.63.951,2.384,2.346,2.765,2.721.744,5.484,1.351,8.168,2.209,3.061.979,5.284,2.862,5.43,6.36a7.586,7.586,0,0,1-4.531,7.634c-5.294,2.665-13.212,1.2-15.808-3.021-.773-1.257-1.713-3.126-.516-3.941,1.281-.873,3.622-1.305,4.75.751.787,1.433,1.756,2.6,3.272,2.757,2.728.283,6.261,1.192,7.2-2.45s-2.885-3.219-4.922-4.151a18.607,18.607,0,0,0-2.9-.668c-6.058-1.638-8.086-3.97-7.558-8.65C131.467,270.423,135.1,267.788,140.771,267.767Z" transform="translate(-0.758 -1)"/><path class="cls-53" d="M199.24,294.643c-3.409.652-6.265,1.152-7.071-3.17-.554-2.97-3.159-1.873-4.905-1.825-2.111.057-5.272-1.354-5.984,1.819-.9,4.017-3.362,3.8-6.939,3.275,2.943-8.312,5.86-16.457,8.7-24.63.762-2.193,2.5-1.72,4.108-1.838,1.633-.12,2.921.2,3.533,1.957C193.5,278.337,196.358,286.432,199.24,294.643Z" transform="translate(-0.758 -1)"/><path class="cls-54" d="M162.04,283.942a40.851,40.851,0,0,1,.04-5.479c.562-4.132-.555-6.342-5.222-5.446-1.533.294-2.869.119-2.88-2.2-.012-2.51,1.379-2.573,3.194-2.56,5.152.039,10.305.05,15.456-.009,1.912-.022,3.172.283,3.173,2.662,0,2.409-1.6,2.329-3.016,2.094-4.324-.719-5.4,1.164-5.056,5.192a115.279,115.279,0,0,1,.049,12.458c-.043,1.913,1.009,4.366-2.756,4.455-3.641.087-2.97-2.118-2.98-4.19C162.031,288.6,162.04,286.269,162.04,283.942Z" transform="translate(-0.758 -1)"/><path class="cls-54" d="M235.247,284.245a48.149,48.149,0,0,1,.026-4.984c.426-4.1.06-7.306-5.451-6.247-1.351.259-2.631-.006-2.6-2.007.031-1.817.561-2.778,2.567-2.754,5.652.067,11.305.057,16.957.015,1.77-.013,2.221.843,2.255,2.457.034,1.688-.557,2.658-2.258,2.3-6.322-1.341-5.972,2.661-5.784,6.866.186,4.148-.077,8.315.085,12.465.091,2.314-.9,2.715-2.927,2.715-2.112,0-3.021-.637-2.906-2.844C235.353,289.571,235.248,286.9,235.247,284.245Z" transform="translate(-0.758 -1)"/><path class="cls-55" d="M282.88,474.008c-3.126-.057-6.219-.433-9.324-.744-4.142-.414-4.919-2.535-4.646-5.934l11.178.813c.347.886-.176,3.323,1.927,1.081,4.2-2.118,8.475-1.673,12.776-.377-.518,1.209-.455,1.9,1.11,1.239,2.464-3.866,6.466-2.5,9.94-2.922.577,3.251-.948,5.155-4.022,5.674-3.242.548-6.54.774-9.813,1.14C288.958,472.153,285.919,473.008,282.88,474.008Z" transform="translate(-0.758 -1)"/><path class="cls-56" d="M282.015,469.224c1.2,1.873-.156,2.691-1.5,3.364a1.6,1.6,0,0,1-2.08-.879c-1.047-1.864.548-2.627,1.65-3.567Z" transform="translate(-0.758 -1)"/><path class="cls-57" d="M295.9,470.086c.214,1.614-.488,2.562-2.117,2.506a1.742,1.742,0,0,1-1.758-1.927c.028-1.927,1.423-1.853,2.767-1.816Z" transform="translate(-0.758 -1)"/><path class="cls-58" d="M292.426,490.9l1.113-.029c3.759,5.263,3.688,5.989-.888,8.866-1.033.649-2.145,1-3.191.148-1.348-1.1-.414-2.017.426-2.823.923-.886,2.5-1.2.708-3.1C288.9,492.166,292.092,492.138,292.426,490.9Z" transform="translate(-0.758 -1)"/><path class="cls-59" d="M304.307,477.962c-5.638,3.7-12.174,3.734-18.456,3.817-3.345.044-6.838-.915-10.321-1.124-2.183-.132-4.31-.886-4.633-3.646,6.9,2.614,14.306,2.312,21.368,2.434a27.461,27.461,0,0,0,10.81-2.309C304.032,476.7,304.15,477.311,304.307,477.962Z" transform="translate(-0.758 -1)"/><path class="cls-60" d="M282.88,474.008c4.477-4.472,5.231-4.474,9.126-.03C288.981,478.475,285.655,478.486,282.88,474.008Z" transform="translate(-0.758 -1)"/><path class="cls-36" d="M196.611,627.1c-.954,1.141,2.889,5.186-2.185,5.718-2.234.234-3.987-.04-3.727-3.043.168-1.936.521-4.073-2.757-4-3.014.069-2.578,2.066-2.458,3.789.191,2.744-1.105,3.3-3.573,3.331-2.711.037-2.522-1.467-2.93-3.417-1.539-7.359,2.436-11.883,7.577-15.955.762-.6,1.557-1.638,2.49-.522C192.382,616.988,198.738,619.193,196.611,627.1Z" transform="translate(-0.758 -1)"/><path class="cls-61" d="M177.439,556.922c.9.084,2.207-.264,2.279,1.059.091,1.649-1.128,2.2-2.632,2.135-1.148-.051-2.723-.043-2.675-1.465C174.465,557.048,176.109,556.977,177.439,556.922Z" transform="translate(-0.758 -1)"/><path class="cls-62" d="M126.817,543.365c1.771,1.054,6.088-2.308,6.1,3.248,0,2.167-.431,3.491-2.972,3.291-1.8-.141-3.616-.016-5.426-.027-2.233-.013-4.566.64-4.565-3.2,0-3.723,2.177-3.345,4.5-3.316C125.106,543.372,125.764,543.365,126.817,543.365Z" transform="translate(-0.758 -1)"/><path class="cls-63" d="M125.917,559.615c-1.645-.438-4.133,1.008-5.62-1.082-1.783-2.507.221-5.864,3.387-5.964,1.648-.052,3.3.045,4.946-.024,2.485-.1,4.4-.11,4.388,3.477-.012,3.435-1.667,3.8-4.284,3.6C127.914,559.562,127.086,559.615,125.917,559.615Z" transform="translate(-0.758 -1)"/><path class="cls-27" d="M316.733,621.335c0,13.063-.007,12.811-13.04,13.171-4.917.136-6.317-1.265-5.94-6.059a162.619,162.619,0,0,0,.059-16.99c-.065-2.5.548-3.82,3.292-3.429a17.771,17.771,0,0,0,2.5.016C316.733,608.034,316.733,608.034,316.733,621.335Z" transform="translate(-0.758 -1)"/><path class="cls-2" d="M296.809,621.252c0,3.469.009,6.938-.013,10.406-.006.986-.015,2.234-1.251,2.335-1.269.1-1.476-1.08-1.478-2.1q-.022-10.653-.007-21.307c0-1.045.2-2.242,1.352-2.3,1.8-.086,1.353,1.538,1.374,2.558C296.859,614.314,296.814,617.784,296.809,621.252Z" transform="translate(-0.758 -1)"/><path class="cls-64" d="M157.161,558.2a2.052,2.052,0,0,1-2.481,1.769c-1.136-.065-1.92-.689-1.837-1.8.094-1.285,1.29-1.265,2.239-1.325C156.071,556.781,157.09,556.811,157.161,558.2Z" transform="translate(-0.758 -1)"/><path class="cls-65" d="M103.8,546.089a8.274,8.274,0,0,1-8.7-.049l4.336-3.633Z" transform="translate(-0.758 -1)"/><path class="cls-66" d="M66.03,621.047c7.622-.212,15.245-.629,22.863.1.055,11.693.055,11.693-11.367,11.689C65.844,632.835,65.844,632.835,66.03,621.047Z" transform="translate(-0.758 -1)"/><path class="cls-67" d="M82.989,643.088a13.823,13.823,0,0,1,2.9-.148,1.935,1.935,0,0,1,1.664,2.517c-.228,1.052-.431,2.323-1.945,2.453-1.455.125-2.085-.8-2.337-1.989a19.979,19.979,0,0,1-.208-2.916Z" transform="translate(-0.758 -1)"/><path class="cls-68" d="M61.825,647.04c-1.256-3.818.468-4.658,3.844-3.846C65.674,645.761,66.892,649.541,61.825,647.04Z" transform="translate(-0.758 -1)"/><path class="cls-69" d="M163.152,87.671c-.1,2.66-1.729,3.11-3.74,3.244-2.085.138-3.092-.637-3.088-2.812,0-2.014.631-3.143,2.882-3.023C161.178,85.186,162.9,85.437,163.152,87.671Z" transform="translate(-0.758 -1)"/><path class="cls-70" d="M212.658,280.072c-3.069.5-4.506-.219-4.506-3.845,0-4.424,2.861-3.11,5.061-3.21,2.7-.123,5.837-.314,5.762,3.617C218.89,281.088,215.216,279.807,212.658,280.072Z" transform="translate(-0.758 -1)"/><path class="cls-71" d="M183.481,284.731l2.943-9.4c2.194,2.809,2.308,6.055,3.607,9.187C187.852,285.348,185.842,285.048,183.481,284.731Z" transform="translate(-0.758 -1)"/><path class="cls-48" d="M303.47,630.3c1.5-5.826-4.385-10.315-2.929-16.524,2.008.973,1.221,2.587,2.171,4.332-.4-3.209,1.4-4.325,3.241-3.943,2.238.464,1.482,3.382.94,4.126C304.251,621.923,305.166,626.333,303.47,630.3Z" transform="translate(-0.758 -1)"/><path class="cls-19" d="M310.932,630.224c1.325-4.666-2.312-8.663-.965-13.339.321-1.112.5-2.632,1.819-2.62,1.717.015,1.18,1.7,1.195,2.724.067,4.365.028,8.732.028,13.1Z" transform="translate(-0.758 -1)"/></g></g></svg>