<svg xmlns="http://www.w3.org/2000/svg" viewBox="0 0 800.208 500.2"><defs><style>.cls-1{fill:#4a5646;}.cls-2{fill:#404b3f;}.cls-3{fill:#25782b;}.cls-4{fill:#c17e27;}.cls-5{fill:#bc6514;}.cls-6{fill:#25772b;}.cls-7{fill:#fefefe;}.cls-8{fill:#9aa417;}.cls-9{fill:#365555;}.cls-10{fill:#fdfdfd;}.cls-11{fill:#495545;}.cls-12{fill:#fcfcfc;}.cls-13{fill:#c17f27;}.cls-14{fill:#28403f;}.cls-15{fill:#7a4f2e;}.cls-16{fill:#fafafa;}.cls-17{fill:#ecedec;}.cls-18{fill:#f3f4f3;}.cls-19{fill:#f6f6f6;}.cls-20{fill:#f5f6f5;}.cls-21{fill:#f0f1ef;}.cls-22{fill:#f6f6f5;}.cls-23{fill:#f7f7f6;}.cls-24{fill:#f7f7f7;}.cls-25{fill:#f2f3f2;}.cls-26{fill:#f4f5f4;}.cls-27{fill:#e7e9e7;}.cls-28{fill:#cbcfca;}.cls-29{fill:#eef0ee;}.cls-30{fill:#f3f3f2;}.cls-31{fill:#eff0ef;}.cls-32{fill:#7a502e;}.cls-33{fill:#5b8925;}.cls-34{fill:#4e5a4a;}.cls-35{fill:#4d5849;}.cls-36{fill:#515c4d;}.cls-37{fill:#4f5a4b;}.cls-38{fill:#4b5647;}</style></defs><title>nikogusa</title><g id="レイヤー_2" data-name="レイヤー 2"><g id="レイヤー_1-2" data-name="レイヤー 1"><path class="cls-1" d="M541,501q-267.687,0-535.375.079c-3.518,0-4.74-.424-4.736-4.452Q1.084,250.935.9,5.241C.9,1.615,1.672.9,5.257.905Q400.915,1.061,796.572.9c3.912,0,4.519,1.057,4.515,4.674Q800.925,155.784,801,306c-1.9,1.559-3.443.364-4.916-.72a42.911,42.911,0,0,1-4.717-4.459q-71.536-71.6-143.165-143.1c-2.206-2.2-3.656-5.225-6.76-6.5-1.6-1.439-2.96-3.173-5.093-3.929a9.259,9.259,0,0,1-5.532-5.428c-2.279-5.316-6.486-7.579-12.034-6.8-4.519.636-7.047-.86-8.943-5.062-2.938-6.514-8.619-9.781-15.6-9.752-5.669.024-9.155-2.175-12.213-6.872-9.092-13.968-29.4-13.4-38.4,1.1-2.555,4.116-5.534,5.853-10.134,5.653A17.28,17.28,0,0,0,515.759,135.1c-.577,3.968-2.03,7.218-6.217,8.874a6.143,6.143,0,0,0-4.039,6.8c.405,3.239,2.708,4.759,5.609,5.665,2.016.629,4.377.607,5.677,2.754,1.677,7.561,2.807,8.436,10.692,8.626,9.58.231,19.175-.523,28.742.454,4.51,2.62,7.2,7.291,11.522,10.194,3.872,2.6,7.669,5.26,12,7.066,7.725,4.536,15.825,8.446,22.286,14.941,15.791,15.875,16.095,36.163.613,52.424-7.6,7.985-15.619,15.448-25.651,20.381-4.621.682-9.229-.167-13.846-.219-20.027-.224-36.667,7.359-50.825,21.166-2.14,2.086-3.657,5.358-7.48,5.066-3.085-2.678-3.6-6.655-4.856-10.175-2.739-7.664-5.628-15.282-8.1-23.037-1.13-3.547-3.139-4.99-6.9-5-3.788-.012-5.666,1.516-6.878,5.016q-6.277,18.128-12.634,36.231c-.57,1.618-2.4,4.025.508,5.119,2.806,1.058,4.636-.484,5.7-3.266,3.064-7.979,3.534-8.246,11.918-8.3l1,0c11.269-.017,12.065.655,14.269,11.9.158.81.529,1.576.642,2.411-2.006,7.4-4.849,14.562-6.373,22.106A4.549,4.549,0,0,1,491.1,335c-5.247,2.847-11.083,1.933-16.646,2.333a175.235,175.235,0,0,0-22.581,3.589c-2.479.231-4.979.193-7.475.28-3.07.107-5.076,1.213-5.194,4.683-.122,3.577.731,6.285,4.825,6.825,2.43.32,5.085-.009,6.911,2.233,2.832,5.885,2.726,12.259,3.129,18.548a188.831,188.831,0,0,1,3.5,24.809,136.894,136.894,0,0,1,2.372,15.118,8.6,8.6,0,0,0,4.665,7.062A15.526,15.526,0,0,0,472,426.2c2.5,1.752,5.389,1.554,8.209,1.566,11.83.051,23.661-.024,35.491.051,2.466.016,5.02-.377,7.338.9,2.19,1.6,1.108,2.753-.608,3.664-1.844.979-3.9.7-5.885.711-12.469.055-24.938-.018-37.88.049.686,2.172,2.258,3.171,3.45,4.366q27.492,27.573,55.017,55.115C539.357,494.86,542.574,496.892,541,501Z" transform="translate(-0.889 -0.896)"/><path class="cls-2" d="M541,501c-.993-2.555-2.895-4.407-4.782-6.293q-29.44-29.408-58.832-58.862c-1.226-1.23-2.97-2.138-3.4-4.827h8.9c11.794,0,23.588.022,35.382-.023,1.93-.007,4.041.557,5.645-1.16-1.582-4.595-.692-6.085,5.807-9.738q27.8-.8,55.591-.015a10.32,10.32,0,0,1,5.553,4c2.585,3.419,5.856,3.8,9.642,3.763,11.945-.1,23.891-.03,35.837-.038,3.372,0,6.021-.662,5.818-4.853,1.238-3.087,4.014-3.051,6.63-3.117,3.7-.094,5.612-1.791,6.3-5.517.952-5.167,1.37-10.406,2.39-15.558a207.111,207.111,0,0,1,3.348-24.369c.774-6.472,1.028-13.028,3.142-19.276,1.7-2.343,4.324-2.121,6.757-2.381,4-.426,5.145-2.894,5.089-6.558-.057-3.68-2.05-4.916-5.36-5-2.315-.059-4.639-.008-6.955-.276-9.272-2-18.552-3.912-28.1-3.913-2.39-.49-3.06-2.33-3.385-4.4-2.956-18.8-12.075-33.944-27-45.651-1.6-1.25-3.1-2.54-3.584-4.637a4.311,4.311,0,0,1,2.471-4.035c7.277-4.276,12.8-10.507,18.592-16.445a6.247,6.247,0,0,1,2.016-1.438c6.06-1.086,12.186-.619,18.267-.481,4.869.111,8.334-1.327,10.114-6.014,2.086-2.129,4.8-1.926,7.454-2,4.63-.135,9.276.326,13.859-.98a6.892,6.892,0,0,0,5.261-5.953,5.894,5.894,0,0,0-3.426-6.6c-3.582-1.748-5.383-4.61-6.62-8.253-1.936-5.706-5.692-9.828-11.907-10.736-6.8-.993-12.877.3-17.092,6.52-1.042,1.537-1.971,3.641-4.5,3.385-3.661-3.986-3.4-9.353-4.841-14.106-.68-2.242-1.216-4.388-3.085-5.934-6.928-10.911-17.593-17.661-27.81-24.9-3.358-2.379-6.882-4.515-10.265-6.862-3.4-2.3-7.037-4.228-10.314-6.7-1.44-1.087-2.87-2.23-3.31-4.149.349-3.415,1.217-6.589,4.1-8.833,1.688-.939,3.538-.787,5.36-.779,13.465.061,26.933-.289,40.393-.118,6.764.085,12.941-.212,16.758-6.852,1.625,1.413,3.341,2.735,4.861,4.253q73.872,73.824,147.723,147.668c1.615,1.613,2.928,3.722,5.515,4.044q0,95.5.1,191c.007,3.425-.673,4.1-4.1,4.1Q669,500.913,541,501Z" transform="translate(-0.889 -0.896)"/><path class="cls-3" d="M602.007,281.974c16.276,11.289,26.982,26.366,31.474,45.8.634,2.742-.215,5.681,1.346,8.23a2.565,2.565,0,0,1,.157,3.645c-1.89,1.837-4.33,1.539-6.613,1.543q-65.408.13-130.815,0c-2.291,0-4.712.256-6.684-1.428a3.971,3.971,0,0,1-.019-5.655c1.371-8.428,3.337-16.678,7.289-24.332.387-4.942,1.447-9.436,7.2-10.8,13.579-16.937,30.954-26.78,52.83-27.943,6.285-.334,12.619-.4,18.856.9,3.411-1.726,6.732-.973,10.036.351,2.59,2.118,6.018,2.321,8.868,3.861C598.506,277.531,601.258,278.7,602.007,281.974Z" transform="translate(-0.889 -0.896)"/><path class="cls-4" d="M662.734,374.921q-1.8,12.071-3.607,24.14c-2.154,2.466-5.1,2.14-7.9,2.152-18.986.075-37.973.032-56.96.033q-64.455,0-128.909-.043c-3.223-.006-6.778.823-9.343-2.208-1.843-8.228-2.546-16.622-3.632-24.961.979-1.6,2.533-2.039,4.27-2.132,1-.054,2-.119,3-.12q97.679-.065,195.357.031C657.911,371.817,661.21,371.287,662.734,374.921Z" transform="translate(-0.889 -0.896)"/><path class="cls-5" d="M456.017,399l203.11.066c-.019,5.644-1.275,11.141-1.964,16.706-.552,4.451-3.039,6.224-7.395,6.186-2.216-.02-4.652-.848-6.647.948-1.8,1.65-4.065,1.291-6.182,1.3-13.65.068-27.3-.018-40.95.066-3.605.022-6.853-1.1-10.154-2.21l-56.589.022c-4.683,2.008-9.6,2.174-14.62,2.2-13.942.073-27.891-.475-41.825.335-2.96-.722-6.111-.806-8.776-2.552-4.107-.674-5.829-3.2-6.158-7.249C457.437,409.526,456.65,404.267,456.017,399Z" transform="translate(-0.889 -0.896)"/><path class="cls-5" d="M662.734,374.921c-1.66-.979-3.5-.931-5.33-.931q-102.51.025-205.019.044-1.226-9.5-2.452-19.009c.938-1.671,2.542-2,4.254-2.119,1.828-.132,3.658-.148,5.489-.148q97.858-.016,195.717.06c3.31,0,7.108-1.177,9.724,2.236C665.06,361.765,663.482,368.293,662.734,374.921Z" transform="translate(-0.889 -0.896)"/><path class="cls-4" d="M665.117,355.054l-215.183-.029c-2.159-.07-4.318-.115-6.474-.216-4.338-.2-6.632-2.146-6.65-6.836-.031-7.789.968-8.988,8.747-9.036,1.828-.011,3.655-.07,5.483-.107,11.353-.613,22.675-1.786,34.059-1.891,2.219-.02,4.306.1,5.872,1.935l143.93-.068c2.621-2.852,5.949-1.232,8.924-1.234,6.743,0,13.442,1.025,20.184,1.273q3.249.045,6.5.09c6.554.081,7.776,1.349,7.739,8.037-.034,6.018-1.645,7.673-7.639,7.864C668.776,354.9,666.947,354.981,665.117,355.054Z" transform="translate(-0.889 -0.896)"/><path class="cls-6" d="M642.9,150.035c-.429,6.558-2.758,8.875-9.339,8.892-17.8.046-35.606,0-53.408,0-1.851-.835-2.291-2.228-1.619-4.064,1.658-2.185,4.1-1.929,6.4-1.954,7.5-.083,14.993-.014,22.489-.041a24.279,24.279,0,0,0,4.483-.263,3.2,3.2,0,0,0,2.838-2.454,2.749,2.749,0,0,0-1.649-3.307c-3.521-1.444-5.22-4.329-6.9-7.5a7.934,7.934,0,0,0-8-4.13c-3.79.265-6.084-1.47-8.18-4.51-7.675-11.134-20.109-10.3-26.674,1.62-.959,1.743-1.743,3.647-3.892,4.326-2.17.331-3.741-.928-5.471-1.937a17.659,17.659,0,0,0-26.813,14.587c-.071,1.492.006,2.987.068,4.481.115,2.808-1.244,4.677-4.056,4.489-2.5-.167-4.65,2.23-7.2.711a29.763,29.763,0,0,1-4.976-.229c-4.256-.893-7.4-3.218-7.9-7.825s1.913-7.875,6.023-9.269c2.862-.97,3.662-2.34,4.107-5.187,1.993-12.739,8.795-18.43,21.753-18.449,2.949,0,4.726-.641,6.2-3.624,4.178-8.463,11.609-12.844,20.788-13.246,9.583-.42,17.627,3.354,22.548,12.012,1.932,3.4,4.014,5.112,8.207,4.915,9.7-.455,16.649,3.967,20.048,13.2.8,2.179,1.717,2.209,3.644,1.892,9.215-1.516,12.828.481,16.793,9.072.665,1.44,1.4,2.592,3.135,2.835C639.433,145.5,641.247,147.68,642.9,150.035Z" transform="translate(-0.889 -0.896)"/><path class="cls-7" d="M101.969,188.1q5.865,18.381,11.729,36.76c4.42-12.492,9.035-24.594,13.316-36.813a37.751,37.751,0,0,1,14.986.125l-.12-.082c2.238,1.518,1.587,3.863,1.595,5.942.05,12.822.029,25.645.023,38.467,0,7.8-1.589,9.061-9.195,7.4a6.306,6.306,0,0,1-2.275-.969l.07.079c-1.344-9.7-.188-19.461-.651-29.181-.062-1.3,1.16-3.319-1.377-3.82-4.322,10.726-7.518,21.835-11.134,32.8-3.271,2.024-6.59,1.722-9.934.205-4.2-10.4-6.916-21.278-10.11-32-2.731.179-1.285,2.3-1.306,3.359-.159,7.955-.045,15.915-.121,23.872-.016,1.585.627,3.309-.584,4.768l.072-.1c-2.967,1.412-5.934,2.85-8.957.118-1.3-3.694-.464-7.507-.561-11.259-.34-13.057.47-26.127-.426-39.18C91.931,186.442,96.957,187.475,101.969,188.1Z" transform="translate(-0.889 -0.896)"/><path class="cls-8" d="M515.986,158.976c2.614-2.692,5.786-3.492,9.793-2.2-2.25-10.865.4-19.358,9.929-24.632,7.548-4.177,15.647-2.644,23.3,3.835,3.835.672,5.555,3.569,6.424,6.821.942,3.528,2.638,5.125,6.462,5.41,4.967.37,6.854,2.59,7.277,6.885q.489,1.915.979,3.83a12.336,12.336,0,0,1-3.17,8.062c-.272,3.095-2.644,4.352-5.079,4.7-5.075.731-10.288,1.451-14.96-1.755-11.091-.05-22.185.034-33.272-.2C516.476,169.589,513.948,165.822,515.986,158.976Z" transform="translate(-0.889 -0.896)"/><path class="cls-9" d="M586.959,274.09l-9.933-2.163c8.085-6.338,16.337-12.407,23.544-19.864,16.352-16.918,14.906-39.557-4.046-53.64-5.581-4.146-11.672-7.6-17.53-11.379.078-.326.146-.739.4-.879,4.613-2.545,8.222-6.227,11.612-10.164a218.142,218.142,0,0,1,27.3,19.2c4.374,3.589,8.48,7.453,10.735,12.839,2.316,4.027,1.585,8.209.7,12.429a83.624,83.624,0,0,1-5.873,17.643c-2.066,4.1-4.609,7.883-4.591,12.9.015,3.971-4.419,3.9-6.865,5.646-5.861,3.453-10.009,9-15.6,12.771C593.778,271.479,591.439,275.077,586.959,274.09Z" transform="translate(-0.889 -0.896)"/><path class="cls-10" d="M119.013,310.072c-7.093-12.15-14.185-24.3-21.868-37.463V290.7c0,4.491-.354,9.017.1,13.461.487,4.812-1.014,6.3-5.9,6.017-3.54-.2-4-1.483-3.992-4.455.012-15.123-.145-30.246-.243-45.368.491-2.029,2.037-2.468,3.785-2.315,3.359.294,6.907-1.024,10.055,1.133l21.31,36.2a3.436,3.436,0,0,0,.592-3.391c-.776-10.253-.128-20.522-.346-30.781-.036-1.707.462-3.1,2.386-3.061,2.7.06,5.645-1.113,7.989,1.269l.022,50.239C128.315,311.333,123.657,310.488,119.013,310.072Z" transform="translate(-0.889 -0.896)"/><path class="cls-7" d="M234.906,282.01c1-3.361.367-6.863,1.85-10.335,5.251-12.3,14.677-13.916,24.9-13.176,18.17,1.314,22.488,14,21.637,29.217a41.732,41.732,0,0,1-1.354,7.758c-1.561,6.221-5.379,10.841-11.287,13.1-9.125,3.485-18.45,3.722-26.838-1.9-5.5-3.687-7.712-9.754-8.568-16.221-.152-1.148-.225-2.306-.335-3.459A4.216,4.216,0,0,1,234.906,282.01Z" transform="translate(-0.889 -0.896)"/><path class="cls-7" d="M298.149,218.982c-1.6,7.3-4.276,13.93-11.359,17.689-12.165,6.455-32.7,4.269-36.056-14.278a47.094,47.094,0,0,1-.436-15.86c1.929-12.141,9.889-18.912,22.265-19.353,13.7-.489,21.8,5.349,24.9,17.946.238.967.482,1.932.723,2.9A37.9,37.9,0,0,1,298.149,218.982Z" transform="translate(-0.889 -0.896)"/><path class="cls-7" d="M192.994,239.06c-1.134-.857-.8-2.108-.8-3.223-.021-14.654.065-29.308-.078-43.96-.03-3,.7-4.178,3.866-3.976,6.464.41,12.988-.531,19.421.78,11.891,2.424,18.37,10.019,19,22.237.717,14.038-5,22.947-16.738,26.811-2.9.953-5.823.664-8.662,1.378C203.659,241.078,198.322,241.523,192.994,239.06Z" transform="translate(-0.889 -0.896)"/><path class="cls-7" d="M344,239.018c-3.329-5.511-6.706-10.994-9.966-16.545-1.41-2.4-3.541-2.883-5.916-2.394-2.486.513-1.3,2.7-1.329,4.1-.118,4.792.021,9.59.063,14.386-3.5,3.157-7.138,2.527-10.825.378l.06.061c-.763-.829-.581-1.862-.581-2.838q-.013-22.89-.006-45.78a4.159,4.159,0,0,1,.474-2.4l.018-.011a82.86,82.86,0,0,1,18.993-.077c1.621.365,3.25.693,4.859,1.1,5.59,1.422,9.62,4.555,10.762,10.466,1.161,6.011-.093,11.583-5.416,14.963-3.487,2.215-2.918,3.685-.945,6.38,4.116,5.626,7.946,11.46,11.894,17.208-1.257,3.928-4.563,2.068-7.042,2.436A7.707,7.707,0,0,1,344,239.018Z" transform="translate(-0.889 -0.896)"/><path class="cls-7" d="M223.884,259.47c-5.164,6.48-10.215,13.056-15.554,19.389-1.9,2.258-1.593,3.8-.125,6.052,5.348,8.192,10.489,16.519,15.708,24.8-3.917,1.55-7.914.764-11.9.407-3.733-5.815-7.492-11.614-11.191-17.452-2.858-4.51-3.479-4.5-6.7.35,2.46,4.838,1.168,9.991,1.189,15.02a2.345,2.345,0,0,1-2.6,2.411c-3.234-.183-6.536.763-9.7-.555l.106.107c-1.149-1.488-.58-3.218-.586-4.825-.051-13.825-.035-27.65-.027-41.475,0-5.675.018-5.675,5.908-5.692.5,0,1,.044,1.5,0,4.009-.394,5.815,1.22,5.656,5.426-.145,3.828-.342,7.632-.787,11.437-.166,1.417-1.45,3.323,1.073,4.113,5.248-6.779,9.914-14.03,16.153-20.009C216.025,257.711,220.023,256.983,223.884,259.47Z" transform="translate(-0.889 -0.896)"/><path class="cls-7" d="M401.082,278c0,4.99.1,9.982-.022,14.969-.194,8.088-4.511,13.9-12.164,16.408a27.787,27.787,0,0,1-17.182.208c-7.689-2.382-11.971-7.876-12.269-15.8-.4-10.63-.141-21.284-.258-31.926-.025-2.226.932-2.705,2.972-2.841,8.015-.535,8.006-.611,8.012,7.209,0,8.316-.142,16.637.077,24.948.183,7,3.245,10.066,9.555,10.267,6.535.208,10.043-2.775,10.228-9.433.263-9.474.452-18.974.019-28.433-.238-5.191,2.683-4.435,5.846-4.556,3.314-.126,5.748-.1,5.3,4.52-.46,4.779-.1,9.637-.1,14.46Z" transform="translate(-0.889 -0.896)"/><path class="cls-7" d="M494.719,238.777c-1.552.07-2.371.129-3.191.14-8.477.115-8.628.155-10.913-7.947-.862-3.057-2.105-4.631-5.429-4.1a25.591,25.591,0,0,1-3.986.035c-9.755,0-9.755,0-13.069,9.168-.821,2.273-9.922,4.319-11.721,2.579-.87-.842-.24-1.831.078-2.738q8-22.787,16-45.576a3.164,3.164,0,0,1,3.072-2.54c10.47-1.074,10.944-.838,14.417,9.056C484.8,210.615,489.651,224.373,494.719,238.777Z" transform="translate(-0.889 -0.896)"/><path class="cls-11" d="M315.53,289.235C316.769,277,316.769,277,329.109,277c3,0,6-.064,9,.042,4.4.156,6.788,2.548,6.849,6.933.1,7,.063,14,.013,20.993-.024,3.265-1.341,6.2-4.486,7.16-12.2,3.734-24.515,5.943-35.687-2.694-9.185-7.1-11.71-17.372-10.458-28.156,2.866-24.689,25.026-31.469,43.837-25.321,5.81,1.9,6.96,4.812,5.032,10.878-1.8,5.655-5.377,7.915-10.416,6.577C319.044,269.763,313.782,274.559,315.53,289.235Z" transform="translate(-0.889 -0.896)"/><path class="cls-7" d="M505.34,298.97q-3.6,5.4-7.2,10.8a7.2,7.2,0,0,1-.765-1.282c-1.192-3.422-1.063-9.034-3.74-9.836-5.048-1.513-10.834-.574-16.314-.633-1.52-.017-1.833,1.2-2.182,2.311-.449,1.426-.843,2.869-1.271,4.3-1.411,4.715-7.263,7.293-11.928,5.351-1.774-.739-.9-1.9-.568-2.848,5.376-15.363,10.827-30.7,16.174-46.072.616-1.769,1.651-2.066,3.316-2.182,10.638-.74,10.723-.81,14.137,9.442C498.405,278.555,502.753,288.466,505.34,298.97Z" transform="translate(-0.889 -0.896)"/><path class="cls-7" d="M431.659,310.9c-2.577-.315-4.907-.484-7.193-.9-6.9-1.259-7.424-2.173-7.272-9.111.071-3.245,1.157-3.13,3.556-2.055a30.188,30.188,0,0,0,11.073,2.8c3.212.132,6.662-.107,7.794-3.9,1.095-3.671-1.7-5.438-4.357-6.937-3.183-1.8-6.574-3.241-9.692-5.139-6.144-3.739-8.7-9.615-7.306-16.115,1.284-5.969,5.714-9.644,12.8-10.831,5.783-.969,11.212.228,16.626,2.14,2.413.852,2.9,2.144,1.478,4.022-1.335,1.764-.237,6.174-4.667,4.705a32.421,32.421,0,0,0-8.225-1.928c-3.126-.191-6.239-.07-7.276,3.626-.96,3.419,1.354,5.226,3.982,6.632,3.078,1.648,6.279,3.081,9.287,4.846,6.914,4.059,9.364,9.124,8.033,16.122-1.2,6.3-5.691,10.131-13.443,11.391C435.06,310.562,433.236,310.714,431.659,310.9Z" transform="translate(-0.889 -0.896)"/><path class="cls-7" d="M438.513,188.254c-4.89,9.023-9.125,17.659-14.138,25.817-3.769,6.133-2,12.574-2.578,18.9-.174,1.913,1.047,4.885-.866,5.508-2.713.884-5.9.347-8.887.317-.723-.007-1.022-.715-1.073-1.424a3.967,3.967,0,0,1-.037-.994c2.952-15.666-5.757-27.657-12.646-40.229-1.34-2.445-2.559-4.955-4.221-8.188,3.7,0,6.771.1,9.833-.033,2.21-.094,2.7,1.489,3.44,2.964,2.163,4.305,4.362,8.592,6.527,12.9.6,1.192,1.058,2.557,2.719,2.5,1.5-.046,1.645-1.49,2.159-2.441,1.262-2.336,2.375-4.752,3.581-7.12C427.077,187.4,427.082,187.4,438.513,188.254Z" transform="translate(-0.889 -0.896)"/><path class="cls-10" d="M152.106,309.644l.038-50.214c3.526-2.522,7.17-1.739,10.834-.388l-.05-.041c.988,1.341.547,2.889.55,4.339q.054,21.144,0,42.287c0,1.461.379,3-.487,4.371l0,0C159.343,310.629,155.691,311.189,152.106,309.644Z" transform="translate(-0.889 -0.896)"/><path class="cls-10" d="M380.836,213.5c0,7.141-.111,14.285.054,21.423.067,2.859-.473,4.189-3.769,4.075-9.033-.313-7.163.75-7.234-6.947-.122-13.286.177-26.579-.152-39.857-.108-4.323,1.868-4.558,5.015-4.244,2.784.278,6.507-1.473,6.185,4.13C380.525,199.2,380.835,206.355,380.836,213.5Z" transform="translate(-0.889 -0.896)"/><path class="cls-12" d="M162.01,238.969q-.172-24.151-.362-48.3c-.016-1.779.394-2.858,2.478-2.732,1.987.119,3.988.079,5.978.008,1.669-.06,2.438.618,2.409,2.31-.284,16.248.68,32.509-.513,48.747C168.661,241.824,165.337,240.177,162.01,238.969Z" transform="translate(-0.889 -0.896)"/><path class="cls-13" d="M471.923,422.917a12.592,12.592,0,0,1,5.366-.925q25.977.061,51.956.088c-2.717,1.939-5.271,3.99-5.332,7.755-16.445.793-32.9.186-49.346.328-2.332.02-3.627-1.36-4.667-3.174C468.664,424.682,469.076,423.2,471.923,422.917Z" transform="translate(-0.889 -0.896)"/><path class="cls-14" d="M591.007,176c-1.381,7.159-3.782,9.366-12.013,11.042a41.842,41.842,0,0,1-22.049-17.108c3.6-.076,7.213-.272,10.815-.193a14.143,14.143,0,0,0,9.223-2.754Z" transform="translate(-0.889 -0.896)"/><path class="cls-1" d="M132.028,238.931c9.906-.032,9.913-.032,9.9-10.155q-.016-20.341-.052-40.682c2.935-1.077,3.08.979,3.085,2.891q.051,22.986.013,45.973c0,2.189-.748,4.191-2.975,4.668C138.325,242.415,134.705,242.212,132.028,238.931Z" transform="translate(-0.889 -0.896)"/><path class="cls-1" d="M195.851,278.973c-.366.532-.729,1.511-1.1,1.513-1.213,0-.795-1.123-.8-1.794-.04-5.31-.305-10.64.062-15.925.35-5.029-3.051-3.664-5.545-3.646-2.458.018-5.692-1.446-5.6,3.587.3,15.757.19,31.522.24,47.285-1.568-1.665-1.091-3.751-1.1-5.7-.069-14.959-.016-29.92-.2-44.878-.034-2.627.578-3.113,3.076-2.748a24.75,24.75,0,0,0,7.922.051c3.379-.622,4.174.861,4.184,3.694.016,4.483.253,8.972-1.128,13.345C195.326,275.464,194.473,277.233,195.851,278.973Z" transform="translate(-0.889 -0.896)"/><path class="cls-15" d="M490.971,338.874l-39.932-.044c13.207-2.128,26.455-3.9,39.815-4.724Q490.911,336.491,490.971,338.874Z" transform="translate(-0.889 -0.896)"/><path class="cls-16" d="M93.781,51.7c-2.67,2.114-1.176,6.253-4.379,6.352-3.354.1-1.693-4.2-3.722-5.7a2.974,2.974,0,0,0-.494.617c-.661,1.628,1.317,4.753-1.4,4.8-2.043.035-.725-3.016-1.1-4.65a3.07,3.07,0,0,1,0-1.485c.595-2.019-1.606-5.22,1.566-5.981,3.473-.832,2.734,2.9,3.744,4.7.311.554.314,1.311,1.164,1.4,1.011.106,1.485-.461,1.758-1.345.391-1.267.758-2.548,1.258-3.772.453-1.107,1.524-1.154,2.531-1.115,1.314.05,1.579.99,1.586,2.059.018,2.658.045,5.316,0,7.972-.018,1.089.245,2.666-1.524,2.461-1.281-.149-.952-1.521-.988-2.461C93.749,54.445,93.781,53.333,93.781,51.7Z" transform="translate(-0.889 -0.896)"/><path class="cls-17" d="M202.953,52.681c0-1.767-.019-3.534.009-5.3.013-.827.064-1.747,1.207-1.755a1.418,1.418,0,0,1,1.511,1.567c.023,3.144.022,6.288-.019,9.432a1.531,1.531,0,0,1-1.513,1.61,2.754,2.754,0,0,1-3-1.245c-1.089-1.838-2.153-3.691-3.342-5.734-1.586,1.248-.666,2.821-.916,4.111-.2,1.041.426,2.57-1.32,2.7-1.848.14-1.453-1.4-1.477-2.46-.056-2.481-.023-4.965-.019-7.448,0-1.158-.131-2.407,1.477-2.673a2.63,2.63,0,0,1,2.966,1.267c1.177,1.986,2.367,3.965,3.551,5.946Z" transform="translate(-0.889 -0.896)"/><path class="cls-18" d="M149.26,57.839c-1.325.779-2.412.4-3.316-.886-.624-.887-1.286-1.458-2.38-.465-4.471,4.056-3.662.033-3.762-2.5A24.2,24.2,0,0,1,139.827,50c.192-1.51-.981-3.757,1.157-4.339,2.193-.6,4.746-.584,6.612,1.119,1.556,1.421,1.514,3.31.182,4.939C145.493,54.513,149.663,55.543,149.26,57.839Z" transform="translate(-0.889 -0.896)"/><path class="cls-19" d="M243.252,51.909c.01,4.35-2.165,6.706-6.146,6.653-3.825-.05-6.111-2.674-6.014-6.892.09-3.939,2.053-6.187,6.019-6.392C241.038,45.074,243.241,47.534,243.252,51.909Z" transform="translate(-0.889 -0.896)"/><path class="cls-20" d="M129.23,45.249c3.9-.074,6.185,2.408,6.178,6.7-.007,3.881-1.7,6.314-5.774,6.585-3.853.256-6.4-2.3-6.513-6.416C123.012,47.979,125.376,45.322,129.23,45.249Z" transform="translate(-0.889 -0.896)"/><path class="cls-21" d="M252.161,51.321c1.923.069,4.587-1.854,5.4,1.3.434,1.669,1.27,4.371-1.063,5.342-2.628,1.095-5.678,1.281-7.882-1.142-2.1-2.3-2.186-5.168-1.02-7.943,1.183-2.818,3.668-3.731,6.516-3.582,1.19.062,3.059-.03,2.887,1.812-.169,1.812-1.828.644-2.824.838-.78.152-1.538.415-2.305.628C252.244,49.458,249.8,50.64,252.161,51.321Z" transform="translate(-0.889 -0.896)"/><path class="cls-22" d="M174.08,58.2c-1.273.005-1.8-.417-1.3-1.8,1.137-3.113,1.958-6.361,3.324-9.365,1.1-2.415,3.219-2.646,4.44-.183a78.544,78.544,0,0,1,3.4,9.333c.207.6.483,1.407-.279,1.732-.525.223-1.612.259-1.8-.038-2.339-3.622-4.567-3.874-6.887-.011C174.845,58.084,174.386,58.1,174.08,58.2Z" transform="translate(-0.889 -0.896)"/><path class="cls-23" d="M112.422,45.486c5.122.3,7.258,2.484,7.036,6.833-.209,4.1-2.806,6.515-7.523,5.842-6.765-.965-1.818-6.328-2.952-9.5C107.9,45.623,110.321,45.152,112.422,45.486Z" transform="translate(-0.889 -0.896)"/><path class="cls-24" d="M299.48,56.973c-.1.254-.149.843-.429.99a1.69,1.69,0,0,1-2.245-.328c-2.056-2.742-4-4-6.147-.049a1.631,1.631,0,0,1-2.23.413c-.9-.548-.468-1.476-.216-2.217.961-2.817,1.894-5.649,3-8.411.99-2.478,3.152-3.066,4.406-.819C297.363,49.683,298.186,53.331,299.48,56.973Z" transform="translate(-0.889 -0.896)"/><path class="cls-25" d="M272.878,50.575c-.049,2.995.385,5.981-2.912,7.457-4.543,2.033-8-.673-7.826-6.465.059-2-1.519-5.631,1.507-5.712,2.8-.075.954,3.448,1.353,5.324.386,1.814-.6,4.561,2.3,4.641,3.335.092,2.335-2.863,2.559-4.835.018-.164-.047-.351.011-.493.646-1.6-1.426-4.817,1.581-4.691C274.211,45.917,272.238,49.1,272.878,50.575Z" transform="translate(-0.889 -0.896)"/><path class="cls-26" d="M228.729,57.864c-3.751-.192-3.751-.192-6.792-3.954-.937.022-.867.726-.967,1.366-.181,1.147.676,3.027-1.6,2.852-2.167-.166-1.192-2-1.3-3.133a23.14,23.14,0,0,1,.007-4.985c.186-1.481-1.159-3.829,1.1-4.281,3.089-.616.907,2.845,2.31,3.754,2.266-.835,2.7-4.848,6.938-3.554C223.185,49.944,224.5,53.883,228.729,57.864Z" transform="translate(-0.889 -0.896)"/><path class="cls-26" d="M279.963,48.336a3.083,3.083,0,0,0,2.213,2.573c2.333,1.2,3.9,2.936,2.492,5.528-1.283,2.37-3.733,2.367-6.139,1.842-1.064-.233-1.911-.574-1.6-1.923.306-1.317,1.178-.638,1.908-.569,1.072.1,2.6.868,2.991-.6.451-1.7-1.452-1.917-2.5-2.545-1.929-1.161-3.007-2.739-2.164-4.932.837-2.177,2.835-2.681,4.926-2.351,1,.158,2.731.059,2.6,1.609-.147,1.724-1.739.9-2.788.978A16.606,16.606,0,0,0,279.963,48.336Z" transform="translate(-0.889 -0.896)"/><path class="cls-1" d="M183.01,309.887c10.924.427,10.914.427,10.933-10.446,0-2.144.115-4.287.177-6.43,3.689,2.041,2.846,5.593,2.864,8.8.052,9.4.023,9.4-9.317,9.186C186.036,310.961,184.335,311.207,183.01,309.887Z" transform="translate(-0.889 -0.896)"/><path class="cls-27" d="M165.333,49.41c.618-1.113,1.1-2.168,1.753-3.1a1.7,1.7,0,0,1,2.554-.529c.875.676.13,1.444-.214,2.165-1.333,2.789-3.5,5.271-3.079,8.707a1.286,1.286,0,0,1-1.47,1.528,1.422,1.422,0,0,1-1.407-1.673c.259-3.019-1.379-5.356-2.625-7.857-.46-.922-1.856-2.1-.382-2.96,1.442-.844,2.32.409,2.986,1.685C163.853,48.151,164.04,49.281,165.333,49.41Z" transform="translate(-0.889 -0.896)"/><path class="cls-1" d="M132.873,259.407c-10-1.123-10-1.123-10,8.709q-.006,11.933-.028,23.864c-1.734-4.673-.625-9.518-.8-14.278-.225-6.135-.032-12.285-.232-18.421-.072-2.192.375-3.41,2.687-2.575C127.263,257.7,131.113,255.359,132.873,259.407Z" transform="translate(-0.889 -0.896)"/><path class="cls-1" d="M162.994,310c.366-17,.491-34-.066-51A5.009,5.009,0,0,1,164,262.737q0,21.747,0,43.5A5.3,5.3,0,0,1,162.994,310Z" transform="translate(-0.889 -0.896)"/><path class="cls-1" d="M315.976,187.993c-.279,17-.5,34.009.112,51.013a4.951,4.951,0,0,1-1.083-3.692q0-21.789,0-43.577A5.438,5.438,0,0,1,315.976,187.993Z" transform="translate(-0.889 -0.896)"/><path class="cls-28" d="M669.683,54.412c-1.742.992-1.643-5.9-3.729-.228a1.293,1.293,0,0,1-1.166.43.969.969,0,0,1-.507-1.581c2.163-1.883,1.323-2.668-.687-4.118-1.251-.9-1.247-3.351,1.542-3.086a14.785,14.785,0,0,0,7.96-1.81C670.869,47.311,670.79,51.131,669.683,54.412Z" transform="translate(-0.889 -0.896)"/><path class="cls-1" d="M130.07,206.009q.589-1.953,1.178-3.907l.85.193v36.714c-1.425-1.517-1.082-3.42-1.088-5.222-.026-7.494,0-14.988-.022-22.482C130.981,209.5,131.315,207.61,130.07,206.009Z" transform="translate(-0.889 -0.896)"/><path class="cls-1" d="M96.881,239.013V201.937c1.5,2.088,2.012,3.468,2.011,5.077-1.946,7.868-.359,15.87-.913,23.788C97.786,233.554,98.852,236.494,96.881,239.013Z" transform="translate(-0.889 -0.896)"/><path class="cls-29" d="M104.329,51.882c-1.176,1.956,1.591,5.947-1.913,5.95-2.708,0-1.288-3.909-1.187-5.915.105-2.085-1.912-6.049,1.612-6.02C105.593,45.919,103.29,49.838,104.329,51.882Z" transform="translate(-0.889 -0.896)"/><path class="cls-7" d="M213.43,52.154c-1.049,1.869,1.339,5.577-1.737,5.637-2.566.05-1.29-3.574-1.212-5.455.092-2.224-1.5-6.307,1.239-6.342C214.761,45.955,212.431,50.026,213.43,52.154Z" transform="translate(-0.889 -0.896)"/><path class="cls-30" d="M156.311,52.073c-1.1,1.912,1.383,5.7-1.608,5.785s-1.534-3.693-1.48-5.644c.06-2.191-1.607-6.254,1.33-6.289C157.691,45.888,155.267,49.965,156.311,52.073Z" transform="translate(-0.889 -0.896)"/><path class="cls-1" d="M344,239.018c4.016-.7,8.227.974,12.139-.994.912,1.413,1.157,2.745-.6,3.7C352.949,243.126,346.35,241.56,344,239.018Z" transform="translate(-0.889 -0.896)"/><path class="cls-10" d="M713.7,54.536a18.933,18.933,0,0,1-12.687.05C704.352,52.806,710.135,52.783,713.7,54.536Z" transform="translate(-0.889 -0.896)"/><path class="cls-1" d="M192.994,239.06l16.006.047L208,241a52.818,52.818,0,0,1-16,0Z" transform="translate(-0.889 -0.896)"/><path class="cls-1" d="M316.029,238.946l10.825-.378c.189,2.238-.781,3.6-3.081,3.36C320.966,241.629,317.188,243.591,316.029,238.946Z" transform="translate(-0.889 -0.896)"/><path class="cls-1" d="M100.942,259.174c-4.606.479-9.426-1.546-13.84,1.181.046-.988-.054-2.059.885-2.715C90.258,256.052,98.494,257.051,100.942,259.174Z" transform="translate(-0.889 -0.896)"/><path class="cls-1" d="M162.01,238.969,172,239c.6,1.506.209,2.772-1.454,2.812C167.419,241.886,164.031,242.365,162.01,238.969Z" transform="translate(-0.889 -0.896)"/><path class="cls-31" d="M713.6,47.363c-4.122,2.034-8.313,1.673-12.5,1.3q-.021-.65-.043-1.3Z" transform="translate(-0.889 -0.896)"/><path class="cls-1" d="M88,239.032l8.957-.118c-1.524,3.408-4.584,3.082-7.454,2.918C87.83,241.736,87.38,240.569,88,239.032Z" transform="translate(-0.889 -0.896)"/><path class="cls-2" d="M471.923,422.917c-1.688.854-1.914,2.434-2.023,4.072-2.83-.6-4.292-2.837-5.875-4.926C466.676,422.177,469.469,420.981,471.923,422.917Z" transform="translate(-0.889 -0.896)"/><path class="cls-1" d="M162.978,259.042l-10.834.388C154.609,256.126,159.72,255.943,162.978,259.042Z" transform="translate(-0.889 -0.896)"/><path class="cls-1" d="M223.884,259.47,212,258.964C216.006,256.009,220.171,256.187,223.884,259.47Z" transform="translate(-0.889 -0.896)"/><path class="cls-1" d="M109,239.014l9.934-.205C115.7,242.7,112.385,242.413,109,239.014Z" transform="translate(-0.889 -0.896)"/><path class="cls-1" d="M334.987,187.905l-18.993.077A39.832,39.832,0,0,1,334.987,187.905Z" transform="translate(-0.889 -0.896)"/><path class="cls-2" d="M252.161,51.321a7.988,7.988,0,0,0,.252,1.42c.406,1.11,2.9.687,2.038,2.652-.158.363-1.168.586-1.726.5-1.687-.264-2.405-1.515-2.579-3.092-.188-1.7.09-3.254,1.728-4.229Z" transform="translate(-0.889 -0.896)"/><path class="cls-1" d="M192,241h16A27.365,27.365,0,0,1,192,241Z" transform="translate(-0.889 -0.896)"/><path class="cls-1" d="M101.969,188.1c-4.99,0-10.007-.785-14.958.489C91.912,185.865,96.927,186.576,101.969,188.1Z" transform="translate(-0.889 -0.896)"/><path class="cls-1" d="M142,188.176l-14.986-.125A22.057,22.057,0,0,1,142,188.176Z" transform="translate(-0.889 -0.896)"/><path class="cls-1" d="M119.013,310.072l13.882-.426C128.336,312.021,123.684,311.361,119.013,310.072Z" transform="translate(-0.889 -0.896)"/><path class="cls-1" d="M212.016,310.113l11.9-.407C220.017,311.877,216.028,311.316,212.016,310.113Z" transform="translate(-0.889 -0.896)"/><path class="cls-1" d="M152.106,309.644,163,310C159.32,311.342,155.666,311.946,152.106,309.644Z" transform="translate(-0.889 -0.896)"/><path class="cls-1" d="M234.906,282.01q0,2.49,0,4.981Q229.657,284.5,234.906,282.01Z" transform="translate(-0.889 -0.896)"/><path class="cls-1" d="M298.149,218.982q.018-5.48.034-10.959A15.8,15.8,0,0,1,298.149,218.982Z" transform="translate(-0.889 -0.896)"/><path class="cls-3" d="M636.034,229.027c6.781-12.24,18.464-16.069,28.444-9.309a16.566,16.566,0,0,1,7.236,10.316c.664,3.042,1.928,4.959,4.968,6.136a7.75,7.75,0,0,1,5.185,8.714c-.564,4.2-2.594,7.287-7.3,8.276-6.769,1.422-13.564.415-20.334.785-10.653-1.855-14.777-10.649-19.732-18.57C633.87,232.979,633.56,230.667,636.034,229.027Z" transform="translate(-0.889 -0.896)"/><path class="cls-8" d="M635.917,236.089c3.861,2.49,7.054,5.56,7.871,10.3.373,2.167,1.466,2.613,3.4,2.492,3.675-.231,5.823,1.816,7.052,5.067-.758,6.361-2.473,7.928-8.912,8-7.123.08-14.247.107-21.37.158a12.33,12.33,0,0,1-8.532,1.84c-4.959-.839-6.556-4.3-4.134-8.914,4.871-1.44,7.191-4.332,6.677-9.754-.269-2.832,2.448-4.881,4.1-7.117C626.865,232,630.96,231.391,635.917,236.089Z" transform="translate(-0.889 -0.896)"/><path class="cls-13" d="M585.835,422.059q25.959-.03,51.917-.069a13.689,13.689,0,0,1,5.369.912c2.006,1.053,2.326,2.789,1.584,4.669-.751,1.906-2.422,2.634-4.422,2.635q-22.983.012-45.967.033c-1.672,0-2.839-.481-3.353-2.269C590.18,425.242,587.985,423.649,585.835,422.059Z" transform="translate(-0.889 -0.896)"/><path class="cls-14" d="M611.288,255.031c-.412,5.356.664,6.665,5.714,6.875,2.316.1,4.634.134,6.952.2-5.454,8.68-13.422,14.582-21.947,19.869q-7.524-3.943-15.048-7.885c8.192-4.952,14.728-11.977,22.252-17.763A24.079,24.079,0,0,1,611.288,255.031Z" transform="translate(-0.889 -0.896)"/><path class="cls-14" d="M635.917,236.089a16.021,16.021,0,0,0-13.855,2.07c3.254-9.824,6.867-19.565,6.975-30.118,5.439,5.96,5.946,13.564,7,20.986Q635.976,232.558,635.917,236.089Z" transform="translate(-0.889 -0.896)"/><path class="cls-32" d="M664.009,338.845l-29.109-.038q-.035-1.4-.072-2.806c3.378-2.314,6.8-.058,10.123.158C651.335,336.574,657.659,337.9,664.009,338.845Z" transform="translate(-0.889 -0.896)"/><path class="cls-33" d="M579.174,155.1c-2.61-4.01-6.319-5.78-11.021-5.013-2.387.389-3.293-.5-3.583-2.705a21.377,21.377,0,0,0-5.56-11.4c.882-1.768,1.828-3.507,2.634-5.309,2.7-6.032,7.372-9.12,13.9-9.713,7.192-.653,12.847,1.88,16.153,8.312,1.6,3.109,3.268,4.227,6.81,3.8,5.3-.636,8.83,2.282,10.657,7.124.811,2.15,1.712,3.647,4.24,4.216,2.831.638,4.817,2.746,4.217,5.832-.59,3.032-2.637,4.789-6.053,4.775C600.772,154.975,589.973,155.061,579.174,155.1Z" transform="translate(-0.889 -0.896)"/><path class="cls-1" d="M272.108,285.779a22.391,22.391,0,0,1-1.242,7.7c-1.838,5.266-5.682,7.941-11.38,7.983-5.739.041-9.642-2.455-11.476-7.8a28.753,28.753,0,0,1-.327-17.208c1.7-6.193,5.892-9.149,12.115-9,5.971.142,9.58,3.137,11.409,9.265C271.985,279.325,272.045,281.963,272.108,285.779Z" transform="translate(-0.889 -0.896)"/><path class="cls-1" d="M261.207,213.566c.049-11.232,4.521-17.184,12.731-17.278,8.279-.1,12.771,5.775,12.921,16.707a30.408,30.408,0,0,1-1.034,8.4c-1.6,5.909-5.563,8.857-11.677,8.9-6.156.039-10.168-2.8-11.848-8.674A23.132,23.132,0,0,1,261.207,213.566Z" transform="translate(-0.889 -0.896)"/><path class="cls-1" d="M203.124,213.139c0-4.146.208-8.307-.064-12.435-.211-3.207,1.052-3.822,3.988-3.82,11.35.009,16.242,5.12,16.035,17.146-.185,10.794-5.922,16.207-16.55,15.908-2.521-.07-3.57-.685-3.461-3.366C203.254,222.1,203.122,217.617,203.124,213.139Z" transform="translate(-0.889 -0.896)"/><path class="cls-1" d="M326.73,203.009c1.011-1.869-2.484-6.474,3.7-6.087,6.277.393,9.381,2.274,9.442,6.559.067,4.641-3.528,7.154-10.058,7.032C326.724,210.455,326.724,210.455,326.73,203.009Z" transform="translate(-0.889 -0.896)"/><path class="cls-34" d="M470.147,196.7c2.131,6.806,3.867,12.421,5.655,18.02.674,2.112.114,2.854-2.22,3.053-10.148.866-10.248.822-7.284-8.75C467.454,205.286,468.628,201.557,470.147,196.7Z" transform="translate(-0.889 -0.896)"/><path class="cls-10" d="M298.824,280.022c2.354-18.309,15.364-22.432,29.791-21.348a33.879,33.879,0,0,1,5.864.911c6.421,1.651,6.318,1.661,3.74,7.82-.868,2.073-1.595,3-3.953,1.829A20.262,20.262,0,0,0,326,267.58c-7.317-.3-12.913,3.646-15.015,10.628a24.119,24.119,0,0,0,.435,15.211c2.364,6.749,10.243,10.486,16.777,7.562,3.726-1.668,1.269-5.579,1.625-8.435.335-2.7-2.1-1.8-3.576-2.022-2.56-.386-6.128,1.582-6.14-3.813-.01-4.341,1.012-6.108,5.527-5.493,4.869.664,11.45-2.161,14.244,1.248,2.4,2.928.7,9.22.809,14.024.022,1,0,2,0,3,0,9.429,0,9.422-9.284,10.592-5.422.684-10.969,1.461-16.281.328-8.514-1.816-15.73-9.954-16.269-20.425A30.073,30.073,0,0,1,298.824,280.022Z" transform="translate(-0.889 -0.896)"/><path class="cls-1" d="M298.824,280.022q.018,4.98.035,9.959A13.279,13.279,0,0,1,298.824,280.022Z" transform="translate(-0.889 -0.896)"/><path class="cls-35" d="M485.711,269.989q2.587,8.219,5.174,16.438c.555,1.77-.2,2.43-1.956,2.391-2.5-.056-5-.072-7.5,0-1.989.059-2.727-.528-2.042-2.633,1.736-5.341,3.332-10.728,4.984-16.1Z" transform="translate(-0.889 -0.896)"/><path class="cls-36" d="M240.251,51.81c-.092,1.9-.215,4.054-2.9,4.132-2.6.075-3.2-1.9-3.2-4.013s.591-4.035,3.205-4.005C239.738,47.95,240.145,49.759,240.251,51.81Z" transform="translate(-0.889 -0.896)"/><path class="cls-37" d="M132.345,52.261c-.262,2.036-.757,3.9-3.223,3.668-2.639-.252-2.971-2.364-2.881-4.444.087-1.994.894-3.7,3.264-3.56C132.322,48.093,132.191,50.363,132.345,52.261Z" transform="translate(-0.889 -0.896)"/><path class="cls-38" d="M111.683,51.905c.6-1.3-1.079-3.668,1.656-3.833,2.293-.139,3.036,1.659,3.1,3.6.066,2.156-.715,4.184-3.164,4.084C110.626,55.652,112.258,53.22,111.683,51.905Z" transform="translate(-0.889 -0.896)"/><path class="cls-36" d="M670.486,47.78a5.449,5.449,0,0,1-5.885.442C666.535,46.6,668.072,47.02,670.486,47.78Z" transform="translate(-0.889 -0.896)"/></g></g></svg>