<svg xmlns="http://www.w3.org/2000/svg" viewBox="0 0 505.604 375.638"><title>イヤホン</title><g id="レイヤー_2" data-name="レイヤー 2"><g id="レイヤー_1-2" data-name="レイヤー 1"><path d="M397.509,161.732c-8.13-37.577-25.39-72.008-50.052-99.778C321.6,32.84,289.333,13.017,254.144,4.63c-48.265-11.5-102.973-1.335-150.1,27.9C51.207,65.307,14.371,116.965.322,177.985a12.5,12.5,0,1,0,24.362,5.609c12.543-54.477,45.408-100.582,92.54-129.821,41.5-25.747,89.3-34.793,131.123-24.824,30.176,7.192,57.984,24.346,80.417,49.606a189.894,189.894,0,0,1,30.454,46.857c-.106-.017-.209-.042-.316-.057-27.855-4.177-54.618,20.332-59.777,54.741s13.239,65.689,41.1,69.866S394.838,229.629,400,195.22A74.068,74.068,0,0,0,397.509,161.732Z"/><path d="M108.094,213.906c8.13,37.577,25.39,72.008,50.053,99.778C184,342.8,216.27,362.621,251.46,371.008c48.265,11.5,102.973,1.335,150.1-27.9,52.837-32.778,89.674-84.436,103.723-145.456a12.5,12.5,0,1,0-24.362-5.609c-12.543,54.477-45.408,100.582-92.541,129.821-41.5,25.747-89.3,34.793-131.122,24.824-30.176-7.192-57.984-24.346-80.418-49.606a189.891,189.891,0,0,1-30.453-46.857c.106.017.209.042.316.057,27.855,4.177,54.618-20.332,59.777-54.741s-13.24-65.689-41.1-69.866-54.618,20.333-59.777,54.742A74.083,74.083,0,0,0,108.094,213.906Z"/></g></g></svg>