<svg xmlns="http://www.w3.org/2000/svg" viewBox="0 0 345.12 357.516"><path d="M29.177 93.335c-8.1.188-1.815 14.52.641 17.367 2.048 2.375 4.609 4.219 6.677 6.592 2.7 3.094 5.3 6.326 7.883 9.516 4.753 5.874 3.015 13.753 2 20.721C45.1 156.368 43.7 164.14 50.6 170.9c8.238 8.061 21.762 4.8 31.49 1.377a99.9 99.9 0 0 1 12.255-3.908c6.976-1.486 11.539-.548 18 2.435 13.337 6.161 25.439 15.341 35.692 25.82a124.651 124.651 0 0 1 34.918 73.435 120.07 120.07 0 0 1-6.647 53.515 124.379 124.379 0 0 1-10.5 21.926c-1.825 3.011-6.445 7.365-4.554 11.448a.428.428 0 0 0 .278.341c64.632 3.038 127.8-24.561 168.911-74.671 4.755-5.8 10.4-12.153 13.772-18.885 2.564-5.113-1.124-6.224-5.143-8.772a127.119 127.119 0 0 1-33.41-30.85c-20.594-27.358-29.365-62.765-22.671-96.473 7.079-35.645 30.04-66.6 61.474-84.6.813-.465.937-4.649 0-5-5.693-2.131-11.161-2.605-17.181-3.341l-34-4.157Q239.8 24 186.31 17.475q-52.747-6.434-105.5-12.832Q65.054 2.737 49.292.854C46.97.579 44.638.223 42.307.042c-6.926-.536-11.164 4.1-15.329 8.866-3.241 3.71-6.355 7.628-9.939 11.017-4.159 3.934-8.681 7.466-12.328 11.919-5.511 6.726-7.4 17.485 1.076 22.805 3.957 2.483 9.4 3.246 12.447 7.051 3.141 3.924-.552 11.274-.573 16.06-.043 10.36 7.563 19.675 17.773 22.069 3.352.786 7.374.723 10.441-1.057 1.186-.689.023-5.014 0-5-9.436 5.477-23.475-3.463-26.562-12.751-2.55-7.676 5.5-16.969-.787-24.143C15.5 53.424 10.8 52.4 6.921 50.309 4.119 48.8 2.28 47.2 1.913 43.984c-.446-3.906 2.663-7 5.24-9.745 3.5-3.722 7.564-6.821 11.157-10.434 3.53-3.549 6.69-7.5 9.991-11.255 3.869-4.406 8.084-8.01 14.338-7.471 2.4.207 4.8.555 7.19.838q15.141 1.8 30.276 3.64 50.338 6.09 100.669 12.243 52.426 6.393 104.841 12.8c17.328 2.118 34.767 3.822 52.04 6.361a32.784 32.784 0 0 1 6.808 2.074v-5a128.528 128.528 0 0 0-61.641 83.165c-7.7 34.482-1.5 71.73 18.008 101.3a128.731 128.731 0 0 0 43.633 40.691l-.53-1.836v.015l.385-3.076c-30.118 46.675-78.407 79.944-133.045 90.528a204.078 204.078 0 0 1-23.516 3.152q-5.823.438-11.664.547c-1.556.029-14.011.7-14.309.058l-.131 4.569c28.522-41.434 30.808-97.892 5.133-141.285-13.255-22.4-34.169-41.953-58.439-51.8-18.928-7.68-43.762 19.822-59.738-.475-4.244-5.393-1.038-14.062-.4-20.386.5-4.928.837-10.2-.337-15.069-1.417-5.869-6.763-10.609-10.575-15.067-1.651-1.932-15.454-14.562-8.125-14.732.828-.019.784-5.018 0-5z" fill="#231815" data-name="レイヤー 2"/></svg>